<svg width="940" height="228" viewBox="0 0 940 228" fill="none" xmlns="http://www.w3.org/2000/svg">
    <g clip-path="url(#clip0_12_8)">
        <path d="M248.383 110.441H229.489V155.582H248.383V110.441Z" fill="#B7CBD8"/>
        <path d="M240.291 114.973H221.397V155.581H240.291V114.973Z" fill="#B7CBD8"/>
        <path d="M696.914 110.943V53.0845H697.97V110.943H696.914Z" fill="#B7CBD8"/>
        <path d="M703.564 110.943V55.3006L704.62 54.9844V110.943H703.564Z" fill="#B7CBD8"/>
        <path d="M690.686 111.26V55.0825L691.742 55.4067V111.26H690.686Z" fill="#B7CBD8"/>
        <path d="M691.201 105.136C697.483 104.87 697.769 104.902 704.125 105.507L704.059 106.205L697.434 105.574L691.228 105.838L691.201 105.136Z" fill="#B7CBD8"/>
        <path d="M691.157 99.125L697.438 98.0598L704.141 99.0182L704.043 99.7133L697.446 98.7708L691.272 99.8175L691.157 99.125Z" fill="#B7CBD8"/>
        <path d="M691.143 92.6463L697.439 91.3391L704.154 92.5377L704.031 93.2302L697.445 92.0545L691.286 93.3335L691.143 92.6463Z" fill="#B7CBD8"/>
        <path d="M691.143 86.2337L697.439 84.9265L704.154 86.126L704.031 86.8184L697.445 85.6419L691.286 86.9209L691.143 86.2337Z" fill="#B7CBD8"/>
        <path d="M691.132 79.8418L697.437 78.3191L704.163 79.7341L704.021 80.4212L697.446 79.0381L691.296 80.5237L691.132 79.8418Z" fill="#B7CBD8"/>
        <path d="M691.117 73.764L697.436 71.9163L704.179 73.6554L704.005 74.3346L697.448 72.6432L691.311 74.4371L691.117 73.764Z" fill="#B7CBD8"/>
        <path d="M691.103 67.7102L697.436 65.5771L704.192 67.6007L703.992 68.2746L697.447 66.3138L691.326 68.3762L691.103 67.7102Z" fill="#B7CBD8"/>
        <path d="M691.091 61.7793L697.435 59.3875L704.204 61.6698L703.981 62.3349L697.449 60.132L691.338 62.4364L691.091 61.7793Z" fill="#B7CBD8"/>
        <path d="M690.686 55.0824L697.431 52.5254L704.62 54.9844L703.925 55.8261L697.452 53.6427L691.4 55.925L690.686 55.0824Z" fill="#B7CBD8"/>
        <path d="M691.016 105.313L697.244 98.2417L697.64 98.5897L691.412 105.661L691.016 105.313Z" fill="#B7CBD8"/>
        <path d="M691.393 99.2768L697.446 104.868L703.917 99.1672L704.266 99.5629L697.438 105.578L691.036 99.6645L691.393 99.2768Z" fill="#B7CBD8"/>
        <path d="M703.898 105.861L697.248 98.5931L697.636 98.238L704.286 105.507L703.898 105.861Z" fill="#B7CBD8"/>
        <path d="M691.007 99.5083L697.235 91.5352L697.649 91.8584L691.422 99.8316L691.007 99.5083Z" fill="#B7CBD8"/>
        <path d="M691.393 92.5553L697.446 98.1295L703.918 92.4458L704.266 92.8415L697.437 98.837L691.036 92.9431L691.393 92.5553Z" fill="#B7CBD8"/>
        <path d="M703.893 99.5373L697.243 91.8689L697.64 91.5244L704.291 99.1937L703.893 99.5373Z" fill="#B7CBD8"/>
        <path d="M691.017 92.1605L697.245 85.1104L697.639 85.4592L691.411 92.5085L691.017 92.1605Z" fill="#B7CBD8"/>
        <path d="M691.393 86.1428L697.446 91.717L703.918 86.0342L704.266 86.4299L697.437 92.4254L691.036 86.5306L691.393 86.1428Z" fill="#B7CBD8"/>
        <path d="M703.894 93.0571L697.244 85.4576L697.64 85.1113L704.29 92.7108L703.894 93.0571Z" fill="#B7CBD8"/>
        <path d="M691.221 86.3698L697.235 78.7041L697.649 79.03L691.635 86.6958L691.221 86.3698Z" fill="#B7CBD8"/>
        <path d="M691.393 79.726L697.446 85.3002L703.918 79.6165L704.266 80.0122L697.437 86.0077L691.036 80.1137L691.393 79.726Z" fill="#B7CBD8"/>
        <path d="M703.898 86.2922L697.248 79.046L697.636 78.6892L704.286 85.9354L703.898 86.2922Z" fill="#B7CBD8"/>
        <path d="M691.009 80.0175L697.237 72.2722L697.647 72.6017L691.419 80.3478L691.009 80.0175Z" fill="#B7CBD8"/>
        <path d="M691.381 73.5186L697.452 78.5169L703.938 73.7826L704.247 74.2075L697.432 79.1811L691.047 73.9249L691.381 73.5186Z" fill="#B7CBD8"/>
        <path d="M703.892 80.4044L697.242 72.6079L697.642 72.2661L704.292 80.0626L703.892 80.4044Z" fill="#B7CBD8"/>
        <path d="M691.166 73.7129L697.235 65.9438L697.649 66.268L691.58 74.0362L691.166 73.7129Z" fill="#B7CBD8"/>
        <path d="M691.368 67.8296L697.445 72.1964L703.942 67.7209L704.242 68.1537L697.439 72.8394L691.061 68.2562L691.368 67.8296Z" fill="#B7CBD8"/>
        <path d="M703.891 74.1643L697.241 66.275L697.643 65.9368L704.293 73.826L703.891 74.1643Z" fill="#B7CBD8"/>
        <path d="M691.005 67.8835L697.232 59.7434L697.651 60.0631L691.424 68.2032L691.005 67.8835Z" fill="#B7CBD8"/>
        <path d="M691.362 61.8895L697.443 65.9976L703.946 61.6343L704.238 62.0715L697.441 66.6326L691.067 62.3259L691.362 61.8895Z" fill="#B7CBD8"/>
        <path d="M703.889 68.1059L697.239 60.071L697.645 59.7354L704.295 67.7694L703.889 68.1059Z" fill="#B7CBD8"/>
        <path d="M690.999 61.9568L697.226 53.073L697.657 53.3742L691.43 62.2579L690.999 61.9568Z" fill="#B7CBD8"/>
        <path d="M691.362 55.214L697.445 59.3202L703.948 55.1062L704.235 55.5469L697.438 59.9517L691.067 55.6512L691.362 55.214Z" fill="#B7CBD8"/>
        <path d="M703.881 62.1607L697.232 53.382L697.652 53.0649L704.303 61.8436L703.881 62.1607Z" fill="#B7CBD8"/>
        <path d="M678.264 99.6346V41.7754H679.319V99.6346H678.264Z" fill="#B7CBD8"/>
        <path d="M684.914 99.6347V43.9924L685.97 43.6753V99.6347H684.914Z" fill="#B7CBD8"/>
        <path d="M672.036 99.951V43.7744L673.092 44.0977V99.951H672.036Z" fill="#B7CBD8"/>
        <path d="M672.55 93.8282C678.833 93.5623 679.119 93.5941 685.475 94.1992L685.409 94.8969L678.784 94.2663L672.579 94.5295L672.551 93.8282H672.55Z" fill="#B7CBD8"/>
        <path d="M672.506 87.816L678.788 86.7517L685.491 87.7092L685.392 88.4043L678.796 87.4618L672.622 88.5085L672.506 87.816Z" fill="#B7CBD8"/>
        <path d="M672.493 81.3372L678.788 80.03L685.504 81.2295L685.38 81.922L678.795 80.7463L672.635 82.0244L672.493 81.3372Z" fill="#B7CBD8"/>
        <path d="M672.493 74.9258L678.788 73.6177L685.504 74.8171L685.38 75.5096L678.795 74.334L672.635 75.6129L672.493 74.9258Z" fill="#B7CBD8"/>
        <path d="M672.482 68.5327L678.787 67.01L685.513 68.425L685.37 69.1122L678.796 67.7299L672.647 69.2146L672.482 68.5327Z" fill="#B7CBD8"/>
        <path d="M672.466 62.455L678.786 60.6082L685.528 62.3473L685.355 63.0256L678.798 61.3351L672.662 63.129L672.466 62.455Z" fill="#B7CBD8"/>
        <path d="M672.453 56.4021L678.787 54.269L685.542 56.2926L685.342 56.9656L678.797 55.0057L672.676 57.0672L672.453 56.4021Z" fill="#B7CBD8"/>
        <path d="M672.441 50.4702L678.785 48.0784L685.553 50.3607L685.33 51.0267L678.799 48.8238L672.688 51.1273L672.441 50.4702Z" fill="#B7CBD8"/>
        <path d="M672.036 43.7743L678.781 41.2173L685.97 43.6754L685.275 44.5171L678.803 42.3346L672.75 44.6169L672.036 43.7743Z" fill="#B7CBD8"/>
        <path d="M672.367 94.0039L678.594 86.9326L678.99 87.2806L672.762 94.3528L672.367 94.0039Z" fill="#B7CBD8"/>
        <path d="M672.743 87.9687L678.796 93.5597L685.268 87.8591L685.616 88.2548L678.788 94.2689L672.386 88.3564L672.743 87.9687Z" fill="#B7CBD8"/>
        <path d="M685.248 94.5533L678.598 87.2841L678.986 86.9299L685.636 94.1982L685.248 94.5533Z" fill="#B7CBD8"/>
        <path d="M672.357 88.1992L678.584 80.2261L678.999 80.5502L672.771 88.5234L672.357 88.1992Z" fill="#B7CBD8"/>
        <path d="M672.743 81.2463L678.796 86.8214L685.269 81.1377L685.615 81.5334L678.788 87.5289L672.386 81.6341L672.743 81.2463Z" fill="#B7CBD8"/>
        <path d="M685.243 88.2293L678.593 80.56L678.991 80.2156L685.641 87.8849L685.243 88.2293Z" fill="#B7CBD8"/>
        <path d="M672.368 80.8515L678.595 73.8022L678.989 74.1502L672.762 81.1995L672.368 80.8515Z" fill="#B7CBD8"/>
        <path d="M672.743 74.8349L678.796 80.4091L685.269 74.7253L685.615 75.121L678.788 81.1166L672.386 75.2226L672.743 74.8349Z" fill="#B7CBD8"/>
        <path d="M685.244 81.749L678.594 74.1495L678.99 73.8032L685.64 81.4027L685.244 81.749Z" fill="#B7CBD8"/>
        <path d="M672.57 75.0618L678.584 67.396L678.999 67.7219L672.984 75.3877L672.57 75.0618Z" fill="#B7CBD8"/>
        <path d="M672.743 68.417L678.796 73.9912L685.269 68.3083L685.615 68.704L678.788 74.6987L672.386 68.8047L672.743 68.417Z" fill="#B7CBD8"/>
        <path d="M685.248 74.9832L678.598 67.737L678.986 67.3801L685.636 74.6272L685.248 74.9832Z" fill="#B7CBD8"/>
        <path d="M672.36 68.7086L678.587 60.9634L678.997 61.2928L672.769 69.039L672.36 68.7086Z" fill="#B7CBD8"/>
        <path d="M672.731 62.2095L678.802 67.2078L685.287 62.4736L685.596 62.8984L678.782 67.8729L672.398 62.6158L672.731 62.2095Z" fill="#B7CBD8"/>
        <path d="M685.242 69.0962L678.591 61.2997L678.992 60.957L685.642 68.7544L685.242 69.0962Z" fill="#B7CBD8"/>
        <path d="M672.515 62.4048L678.584 54.6357L678.999 54.959L672.93 62.7281L672.515 62.4048Z" fill="#B7CBD8"/>
        <path d="M672.718 56.5206L678.796 60.8883L685.292 56.4128L685.591 56.8456L678.789 61.5304L672.411 56.9481L672.718 56.5206Z" fill="#B7CBD8"/>
        <path d="M685.241 62.8552L678.591 54.966L678.993 54.6277L685.643 62.5169L685.241 62.8552Z" fill="#B7CBD8"/>
        <path d="M672.355 56.5744L678.583 48.4343L679.001 48.7541L672.774 56.8941L672.355 56.5744Z" fill="#B7CBD8"/>
        <path d="M672.712 50.5805L678.793 54.6894L685.296 50.3262L685.588 50.7634L678.791 55.3236L672.417 51.0178L672.712 50.5805Z" fill="#B7CBD8"/>
        <path d="M685.239 56.7969L678.589 48.7619L678.995 48.4263L685.645 56.4612L685.239 56.7969Z" fill="#B7CBD8"/>
        <path d="M672.349 50.6486L678.577 41.7649L679.008 42.0661L672.78 50.9498L672.349 50.6486Z" fill="#B7CBD8"/>
        <path d="M672.712 43.9051L678.796 48.0114L685.299 43.7974L685.585 44.239L678.788 48.6429L672.417 44.3423L672.712 43.9051Z" fill="#B7CBD8"/>
        <path d="M685.231 50.8527L678.582 42.0741L679.002 41.7561L685.652 50.5348L685.231 50.8527Z" fill="#B7CBD8"/>
        <path fill-rule="evenodd" clip-rule="evenodd" d="M333.797 106.998L407.3 153.506L382.95 176.403H221.502L262.706 153.53L333.797 106.998Z" fill="#B7CBD8"/>
        <path fill-rule="evenodd" clip-rule="evenodd" d="M198.821 125.139L253.11 159.491L235.125 176.402H115.879L146.312 159.509L198.821 125.139Z" fill="#B7CBD8"/>
        <path d="M390.998 157.843V65.0969H392.513V157.843H390.998Z" fill="#B7CBD8"/>
        <path d="M400.543 157.843V68.6493L402.059 67.759V157.843H400.543Z" fill="#B7CBD8"/>
        <path d="M382.06 157.843V67.9092L383.575 68.8181V157.843H382.06Z" fill="#B7CBD8"/>
        <path d="M382.798 139.808C391.815 139.425 392.225 139.471 401.348 140.34L401.254 141.342L391.745 140.436L382.838 140.814L382.799 139.808H382.798Z" fill="#B7CBD8"/>
        <path d="M382.735 131.178L391.75 129.65L401.371 131.025L401.23 132.023L391.762 130.67L382.9 132.173L382.735 131.178Z" fill="#B7CBD8"/>
        <path d="M382.715 121.879L391.751 120.003L401.389 121.724L401.212 122.719L391.761 121.031L382.919 122.866L382.715 121.879Z" fill="#B7CBD8"/>
        <path d="M382.715 112.676L391.751 110.8L401.389 112.521L401.212 113.515L391.761 111.827L382.919 113.662L382.715 112.676Z" fill="#B7CBD8"/>
        <path d="M382.7 103.502L391.749 101.316L401.403 103.346L401.198 104.333L391.763 102.349L382.935 104.48L382.7 103.502Z" fill="#B7CBD8"/>
        <path d="M382.677 94.7776L391.747 92.127L401.425 94.6221L401.176 95.5972L391.765 93.1701L382.957 95.7439L382.677 94.7776Z" fill="#B7CBD8"/>
        <path d="M382.657 86.0892L391.748 83.0278L401.445 85.932L401.157 86.8991L391.763 84.0851L382.977 87.0449L382.657 86.0892Z" fill="#B7CBD8"/>
        <path d="M382.639 77.5763L391.746 74.1431L401.461 77.4191L401.141 78.3739L391.766 75.2127L382.995 78.5196L382.639 77.5763Z" fill="#B7CBD8"/>
        <path d="M382.06 67.9092L391.74 64.2949L402.059 67.759L401.061 69.0318L391.77 65.8989L383.084 69.174L382.06 67.9092Z" fill="#B7CBD8"/>
        <path d="M382.534 140.06L391.472 129.911L392.04 130.411L383.101 140.56L382.534 140.06Z" fill="#B7CBD8"/>
        <path d="M383.073 131.397L391.762 139.422L401.051 131.24L401.551 131.808L391.75 140.441L382.562 131.954L383.073 131.397Z" fill="#B7CBD8"/>
        <path d="M401.023 140.848L391.477 130.415L392.035 129.906L401.579 140.339L401.023 140.848Z" fill="#B7CBD8"/>
        <path d="M382.52 131.729L391.459 120.285L392.053 120.75L383.115 132.193L382.52 131.729Z" fill="#B7CBD8"/>
        <path d="M383.073 121.75L391.763 129.75L401.053 121.592L401.549 122.16L391.749 130.766L382.562 122.306L383.073 121.75Z" fill="#B7CBD8"/>
        <path d="M401.015 131.771L391.471 120.764L392.042 120.27L401.586 131.277L401.015 131.771Z" fill="#B7CBD8"/>
        <path d="M382.534 121.183L391.474 111.064L392.039 111.564L383.1 121.682L382.534 121.183Z" fill="#B7CBD8"/>
        <path d="M383.073 112.546L391.763 120.546L401.053 112.39L401.549 112.958L391.749 121.562L382.562 113.102L383.073 112.546Z" fill="#B7CBD8"/>
        <path d="M401.016 122.469L391.472 111.562L392.04 111.066L401.584 121.973L401.016 122.469Z" fill="#B7CBD8"/>
        <path d="M382.826 112.872L391.459 101.869L392.053 102.337L383.42 113.34L382.826 112.872Z" fill="#B7CBD8"/>
        <path d="M383.073 103.335L391.763 111.336L401.053 103.178L401.549 103.746L391.749 112.352L382.562 103.892L383.073 103.335Z" fill="#B7CBD8"/>
        <path d="M401.023 112.76L391.477 102.359L392.035 101.847L401.579 112.248L401.023 112.76Z" fill="#B7CBD8"/>
        <path d="M382.523 103.754L391.461 92.6367L392.05 93.1101L383.111 104.228L382.523 103.754Z" fill="#B7CBD8"/>
        <path d="M383.057 94.4253L391.77 101.6L401.079 94.8042L401.522 95.4145L391.741 102.554L382.578 95.0082L383.057 94.4253Z" fill="#B7CBD8"/>
        <path d="M401.014 104.31L391.468 93.119L392.043 92.6279L401.588 103.819L401.014 104.31Z" fill="#B7CBD8"/>
        <path d="M382.747 94.7053L391.459 83.5542L392.053 84.0179L383.342 95.169L382.747 94.7053Z" fill="#B7CBD8"/>
        <path d="M383.038 86.2604L391.761 92.528L401.086 86.105L401.515 86.7259L391.751 93.451L382.597 86.8734L383.038 86.2604Z" fill="#B7CBD8"/>
        <path d="M401.012 95.3528L391.467 84.0286L392.044 83.5437L401.59 94.867L401.012 95.3528Z" fill="#B7CBD8"/>
        <path d="M382.517 86.3373L391.456 74.6545L392.057 75.1129L383.117 86.7957L382.517 86.3373Z" fill="#B7CBD8"/>
        <path d="M383.029 77.7343L391.757 83.6309L401.091 77.3687L401.511 77.9966L391.755 84.5424L382.606 78.3614L383.029 77.7343Z" fill="#B7CBD8"/>
        <path d="M401.009 86.6561L391.465 75.1243L392.048 74.6421L401.592 86.1747L401.009 86.6561Z" fill="#B7CBD8"/>
        <path d="M382.508 77.8316L391.447 65.0801L392.066 65.5129L383.126 78.2635L382.508 77.8316Z" fill="#B7CBD8"/>
        <path d="M383.029 68.1529L391.761 74.0468L401.095 67.9983L401.507 68.6316L391.751 74.953L382.606 68.7809L383.029 68.1529Z" fill="#B7CBD8"/>
        <path d="M400.999 78.124L391.454 65.5244L392.058 65.0686L401.603 77.6682L400.999 78.124Z" fill="#B7CBD8"/>
        <path fill-rule="evenodd" clip-rule="evenodd" d="M453.404 139.321L446.283 139.624L333.869 75.6959L305.084 68.273V66.3033L314.931 61.4561L340.838 70.3937L453.404 139.321Z" fill="#B7CBD8"/>
        <path d="M306.919 66.6857L302.798 64.7691C306.787 62.3834 310.776 59.9977 314.763 57.6077C324.081 60.8775 333.402 64.1464 342.726 67.4003L455.527 137.606L454.994 138.462L342.284 68.3127L314.874 58.7144L304.946 64.6569L307.34 65.7707L306.918 66.6857H306.919Z" fill="#B7CBD8"/>
        <path d="M313.551 64.1491L302.694 60.307C306.717 57.9001 310.741 55.495 314.762 53.0837C324.08 56.3535 333.402 59.6154 342.723 62.8755L456.101 135.216L455.56 136.064L342.285 63.7896L314.873 54.1905L305.049 60.0712L313.886 63.1979L313.551 64.1491H313.551Z" fill="#B7CBD8"/>
        <path d="M307.156 66.0525L307.582 57.6431L308.588 57.6908L308.162 66.1002L307.156 66.0525Z" fill="#B7CBD8"/>
        <path d="M311.813 63.7145L312.229 54.7468L313.235 54.7901L312.819 63.7578L311.813 63.7145Z" fill="#B7CBD8"/>
        <path d="M320.346 64.5254L320.761 55.5569L321.767 55.601L321.351 64.5687L320.346 64.5254Z" fill="#B7CBD8"/>
        <path d="M339.513 71.7477L342.209 63.1846L343.17 63.4849L340.475 72.048L339.513 71.7477Z" fill="#B7CBD8"/>
        <path d="M348.485 77.5694L351.181 69.0054L352.143 69.3057L349.448 77.8697L348.485 77.5694Z" fill="#B7CBD8"/>
        <path d="M359.697 84.6891L362.392 76.126L363.355 76.4254L360.66 84.9894L359.697 84.6891Z" fill="#B7CBD8"/>
        <path d="M371.782 92.7593L374.477 84.1953L375.44 84.4956L372.745 93.0596L371.782 92.7593Z" fill="#B7CBD8"/>
        <path d="M382.842 99.7283L385.537 91.1643L386.5 91.4646L383.805 100.028L382.842 99.7283Z" fill="#B7CBD8"/>
        <path d="M393.297 106.673L395.992 98.1094L396.955 98.4088L394.26 106.973L393.297 106.673Z" fill="#B7CBD8"/>
        <path d="M402.613 112.15L405.308 103.586L406.271 103.887L403.575 112.45L402.613 112.15Z" fill="#B7CBD8"/>
        <path d="M411.174 117.831L413.869 109.267L414.832 109.568L412.136 118.131L411.174 117.831Z" fill="#B7CBD8"/>
        <path d="M419.733 122.982L422.428 114.418L423.391 114.718L420.696 123.282L419.733 122.982Z" fill="#B7CBD8"/>
        <path d="M428.445 128.739L431.14 120.175L432.103 120.475L429.407 129.038L428.445 128.739Z" fill="#B7CBD8"/>
        <path d="M437.535 134.344L440.23 125.78L441.193 126.08L438.497 134.643L437.535 134.344Z" fill="#B7CBD8"/>
        <path d="M340.344 70.2233L391.74 64.2949L392.079 65.0969L340.962 70.6552L340.344 70.2233Z" fill="#B7CBD8"/>
        <path d="M330.663 73.8376L382.06 67.9092L382.677 68.6732L331.282 74.2704L330.663 73.8376Z" fill="#B7CBD8"/>
        <path d="M401.56 68.395L455.78 135.746L456.102 135.216L402.059 67.759L401.56 68.395Z" fill="#B7CBD8"/>
        <path d="M391.94 66.2839L451.16 139.24L451.482 138.71L392.439 65.6479L391.94 66.2839Z" fill="#B7CBD8"/>
        <path fill-rule="evenodd" clip-rule="evenodd" d="M721.587 113.21L718.395 109.938L781.704 94.9834L782.919 98.6701L721.587 113.21Z" fill="#B7CBD8"/>
        <path fill-rule="evenodd" clip-rule="evenodd" d="M780.866 91.673L780.148 91.9309L782.548 99.4668L794.134 96.6175L792.675 92.1314L788.662 90.1309L781.027 92.0095L780.866 91.673Z" fill="#B7CBD8"/>
        <path fill-rule="evenodd" clip-rule="evenodd" d="M723.879 116.204L725.958 117.036L783.779 103.967L791.605 97.0945L789.018 97.4001L783.352 102.659L723.879 116.204Z" fill="#B7CBD8"/>
        <path fill-rule="evenodd" clip-rule="evenodd" d="M782.691 97.9795L781.738 98.5633L782.979 103.316L784.023 103.025L782.691 97.9795Z" fill="#B7CBD8"/>
        <path fill-rule="evenodd" clip-rule="evenodd" d="M768.011 101.369L767.059 101.952L768.299 106.705L769.343 106.414L768.011 101.369Z" fill="#B7CBD8"/>
        <path fill-rule="evenodd" clip-rule="evenodd" d="M753.609 104.953L752.656 105.537L753.897 110.289L754.941 109.998L753.609 104.953Z" fill="#B7CBD8"/>
        <path fill-rule="evenodd" clip-rule="evenodd" d="M739.358 107.727L738.404 108.311L739.645 113.064L740.689 112.772L739.358 107.727Z" fill="#B7CBD8"/>
        <path fill-rule="evenodd" clip-rule="evenodd" d="M726.437 116.49L725.909 116.09L738.207 108.662L738.628 109.17L726.437 116.49Z" fill="#B7CBD8"/>
        <path fill-rule="evenodd" clip-rule="evenodd" d="M739.032 108.784L738.875 108.14L754.163 109.396L754.168 110.057L739.032 108.784Z" fill="#B7CBD8"/>
        <path fill-rule="evenodd" clip-rule="evenodd" d="M767.748 102.227L767.591 101.582L782.878 102.839L782.884 103.5L767.748 102.227Z" fill="#B7CBD8"/>
        <path fill-rule="evenodd" clip-rule="evenodd" d="M755.018 109.677L754.489 109.278L766.787 101.85L767.209 102.358L755.018 109.677Z" fill="#B7CBD8"/>
        <path fill-rule="evenodd" clip-rule="evenodd" d="M779.791 102.871L777.254 98.3001L794.096 96.6201L794.229 100.299L790.184 101.336L787.413 104.228L779.791 102.871Z" fill="#B7CBD8"/>
        <path fill-rule="evenodd" clip-rule="evenodd" d="M723.932 119.891L726.011 120.723L783.832 107.655L791.41 100.988L788.393 101.73L783.404 106.347L723.932 119.891Z" fill="#B7CBD8"/>
        <path fill-rule="evenodd" clip-rule="evenodd" d="M782.744 101.667L781.791 102.251L783.031 107.004L784.075 106.712L782.744 101.667Z" fill="#B7CBD8"/>
        <path fill-rule="evenodd" clip-rule="evenodd" d="M768.064 105.056L767.111 105.64L768.352 110.394L769.396 110.101L768.064 105.056Z" fill="#B7CBD8"/>
        <path fill-rule="evenodd" clip-rule="evenodd" d="M753.661 108.64L752.708 109.224L753.949 113.978L754.993 113.686L753.661 108.64Z" fill="#B7CBD8"/>
        <path fill-rule="evenodd" clip-rule="evenodd" d="M739.41 111.415L738.457 111.998L739.698 116.752L740.742 116.461L739.41 111.415Z" fill="#B7CBD8"/>
        <path fill-rule="evenodd" clip-rule="evenodd" d="M726.49 120.177L725.961 119.777L738.259 112.349L738.681 112.858L726.49 120.177Z" fill="#B7CBD8"/>
        <path fill-rule="evenodd" clip-rule="evenodd" d="M739.085 112.472L738.927 111.828L754.215 113.084L754.221 113.745L739.085 112.472Z" fill="#B7CBD8"/>
        <path fill-rule="evenodd" clip-rule="evenodd" d="M767.8 105.915L767.643 105.271L782.931 106.527L782.936 107.187L767.8 105.915Z" fill="#B7CBD8"/>
        <path fill-rule="evenodd" clip-rule="evenodd" d="M755.07 113.365L754.541 112.966L766.839 105.537L767.261 106.046L755.07 113.365Z" fill="#B7CBD8"/>
        <path fill-rule="evenodd" clip-rule="evenodd" d="M722.357 115.132L727.15 114.052L784.24 101.015L784.879 102.083L782.884 103.5L724.919 116.62L722.357 115.132Z" fill="#B7CBD8"/>
        <path fill-rule="evenodd" clip-rule="evenodd" d="M736.567 127.566L735.664 126.491L751.278 110.344L752.844 110.626L736.567 127.566Z" fill="#B7CBD8"/>
        <path fill-rule="evenodd" clip-rule="evenodd" d="M740.77 130.802L739.866 129.727L752.897 113.66L754.463 113.942L740.77 130.802Z" fill="#B7CBD8"/>
        <path fill-rule="evenodd" clip-rule="evenodd" d="M776.376 99.2638L774.66 99.6719L773.901 96.2369L775.518 95.8218L776.376 99.2638Z" fill="#B7CBD8"/>
        <path fill-rule="evenodd" clip-rule="evenodd" d="M759.512 103.195L757.795 103.603L757.037 100.168L758.653 99.7529L759.512 103.195Z" fill="#B7CBD8"/>
        <path fill-rule="evenodd" clip-rule="evenodd" d="M743.487 107.093L741.772 107.501L741.012 104.066L742.629 103.651L743.487 107.093Z" fill="#B7CBD8"/>
        <path fill-rule="evenodd" clip-rule="evenodd" d="M728.407 110.719L726.692 111.127L725.932 107.692L727.548 107.277L728.407 110.719Z" fill="#B7CBD8"/>
        <path fill-rule="evenodd" clip-rule="evenodd" d="M612.393 64.1041L618.226 61.4296L542.85 9.87061L539.396 14.0873L612.393 64.1041Z" fill="#B7CBD8"/>
        <path fill-rule="evenodd" clip-rule="evenodd" d="M545.62 5.95778L546.43 6.65732L539.48 15.3176L525.743 5.73432L529.919 0.59379L536.185 0.000244141L545.239 6.31727L545.62 5.95778Z" fill="#B7CBD8"/>
        <path fill-rule="evenodd" clip-rule="evenodd" d="M607.878 66.867L604.734 66.9076L535.594 20.5907L528.815 7.63696L532.049 9.34252L536.815 19.0936L607.878 66.867Z" fill="#B7CBD8"/>
        <path fill-rule="evenodd" clip-rule="evenodd" d="M540.044 13.2959L540.998 14.5422L536.971 20.142L535.752 19.2322L540.044 13.2959Z" fill="#B7CBD8"/>
        <path fill-rule="evenodd" clip-rule="evenodd" d="M557.561 25.1492L558.515 26.3954L554.489 31.9944L553.268 31.0855L557.561 25.1492Z" fill="#B7CBD8"/>
        <path fill-rule="evenodd" clip-rule="evenodd" d="M574.616 37.1165L575.57 38.3627L571.544 43.9625L570.323 43.0528L574.616 37.1165Z" fill="#B7CBD8"/>
        <path fill-rule="evenodd" clip-rule="evenodd" d="M591.885 47.9478L592.838 49.194L588.812 54.7938L587.592 53.8841L591.885 47.9478Z" fill="#B7CBD8"/>
        <path fill-rule="evenodd" clip-rule="evenodd" d="M604.382 65.9494L605.277 65.6932L592.92 49.7532L592.11 50.2063L604.382 65.9494Z" fill="#B7CBD8"/>
        <path fill-rule="evenodd" clip-rule="evenodd" d="M591.777 49.497L592.308 48.7321L571.648 42.658L571.307 43.5209L591.777 49.497Z" fill="#B7CBD8"/>
        <path fill-rule="evenodd" clip-rule="evenodd" d="M557.474 26.4069L558.004 25.642L537.345 19.5679L537.003 20.4299L557.474 26.4069Z" fill="#B7CBD8"/>
        <path fill-rule="evenodd" clip-rule="evenodd" d="M570.385 42.5944L571.28 42.3383L558.923 26.3982L558.113 26.8513L570.385 42.5944Z" fill="#B7CBD8"/>
        <path fill-rule="evenodd" clip-rule="evenodd" d="M541.372 21.1692L547.003 16.4623L525.791 5.75732L523.76 10.5083L528.535 13.9097L530.702 19.098L541.372 21.1692Z" fill="#B7CBD8"/>
        <path fill-rule="evenodd" clip-rule="evenodd" d="M605.946 71.6717L602.803 71.7114L533.662 25.3946L527.104 12.8347L530.68 15.3299L534.883 23.8975L605.946 71.6717Z" fill="#B7CBD8"/>
        <path fill-rule="evenodd" clip-rule="evenodd" d="M538.113 18.1006L539.067 19.346L535.041 24.9458L533.82 24.0369L538.113 18.1006Z" fill="#B7CBD8"/>
        <path fill-rule="evenodd" clip-rule="evenodd" d="M555.63 29.9531L556.583 31.1994L552.558 36.7992L551.337 35.8895L555.63 29.9531Z" fill="#B7CBD8"/>
        <path fill-rule="evenodd" clip-rule="evenodd" d="M572.685 41.9211L573.639 43.1674L569.613 48.7663L568.392 47.8575L572.685 41.9211Z" fill="#B7CBD8"/>
        <path fill-rule="evenodd" clip-rule="evenodd" d="M589.953 52.7524L590.907 53.9978L586.881 59.5976L585.66 58.6888L589.953 52.7524Z" fill="#B7CBD8"/>
        <path fill-rule="evenodd" clip-rule="evenodd" d="M602.451 70.7541L603.346 70.4979L590.989 54.5579L590.179 55.0101L602.451 70.7541Z" fill="#B7CBD8"/>
        <path fill-rule="evenodd" clip-rule="evenodd" d="M589.845 54.3007L590.376 53.5367L569.717 47.4617L569.376 48.3246L589.845 54.3007Z" fill="#B7CBD8"/>
        <path fill-rule="evenodd" clip-rule="evenodd" d="M555.543 31.2108L556.073 30.446L535.413 24.3718L535.072 25.2348L555.543 31.2108Z" fill="#B7CBD8"/>
        <path fill-rule="evenodd" clip-rule="evenodd" d="M568.454 47.399L569.349 47.142L556.991 31.2019L556.182 31.655L568.454 47.399Z" fill="#B7CBD8"/>
        <path fill-rule="evenodd" clip-rule="evenodd" d="M610.413 66.2318L604.68 62.3976L536.483 16.4915L535.106 17.5673L537.004 20.4299L606.306 66.8872L610.413 66.2318Z" fill="#B7CBD8"/>
        <path fill-rule="evenodd" clip-rule="evenodd" d="M585.519 75.3434L587.246 74.3922L574.947 45.3561L572.753 44.9348L585.519 75.3434Z" fill="#B7CBD8"/>
        <path fill-rule="evenodd" clip-rule="evenodd" d="M578.38 77.4605L580.106 76.5084L571.152 48.882L568.959 48.4607L578.38 77.4605Z" fill="#B7CBD8"/>
        <path fill-rule="evenodd" clip-rule="evenodd" d="M547.668 18.1688L549.709 19.5697L552.439 15.4528L550.531 14.0935L547.668 18.1688Z" fill="#B7CBD8"/>
        <path fill-rule="evenodd" clip-rule="evenodd" d="M567.773 31.8344L569.815 33.2352L572.544 29.1184L570.636 27.759L567.773 31.8344Z" fill="#B7CBD8"/>
        <path fill-rule="evenodd" clip-rule="evenodd" d="M586.794 45.0319L588.836 46.4327L591.566 42.3159L589.658 40.9565L586.794 45.0319Z" fill="#B7CBD8"/>
        <path fill-rule="evenodd" clip-rule="evenodd" d="M604.717 57.3966L606.759 58.7975L609.489 54.6806L607.58 53.3213L604.717 57.3966Z" fill="#B7CBD8"/>
        <path fill-rule="evenodd" clip-rule="evenodd" d="M623.632 39.615L848.573 188.122L597.535 177.027L431.15 166.693L623.632 39.615Z" fill="#B7CBD8"/>
        <path fill-rule="evenodd" clip-rule="evenodd" d="M816.579 126.29L899.036 180.728H734.123L816.579 126.29Z" fill="#B7CBD8"/>
        <path fill-rule="evenodd" clip-rule="evenodd" d="M616.636 61.2043L541.287 113.217L554.373 121.857L577.611 105.244L568.564 131.226L591.43 145.362L616.636 61.2043Z" fill="#FEFEFE"/>
        <path fill-rule="evenodd" clip-rule="evenodd" d="M472.66 70.4353L584.884 141.444L547.707 176.403H301.208L364.118 141.481L472.66 70.4353Z" fill="#B7CBD8"/>
        <path fill-rule="evenodd" clip-rule="evenodd" d="M519.619 29.1166L526.714 27.0966L525.645 22.9471L519.028 21.4412L519.619 29.1166Z" fill="#B7CBD8"/>
        <path fill-rule="evenodd" clip-rule="evenodd" d="M520.467 33.8712L525.09 42.0139L531.496 39.637L532.59 31.1702L520.467 33.8712Z" fill="#B7CBD8"/>
        <path fill-rule="evenodd" clip-rule="evenodd" d="M513.525 32.4412L507.445 39.5628L511.863 44.774L520.197 42.9174L513.525 32.4412Z" fill="#B7CBD8"/>
        <path fill-rule="evenodd" clip-rule="evenodd" d="M523.767 63.7569L531.407 53.1649L524.672 46.4248L513.299 49.9552L523.767 63.7569Z" fill="#B7CBD8"/>
        <path fill-rule="evenodd" clip-rule="evenodd" d="M653.183 137.235L699.769 147.579C701.994 148.073 703.411 150.298 702.918 152.523C702.423 154.749 700.198 156.165 697.973 155.671L651.387 145.326C649.162 144.832 647.745 142.608 648.239 140.382C648.733 138.157 650.958 136.741 653.183 137.235Z" fill="#0C4866"/>
        <path fill-rule="evenodd" clip-rule="evenodd" d="M607.556 120.305C605.476 123.091 601.891 121.019 603.027 118.183L611.162 100.377L611.997 98.55L613.995 94.1762C617.45 87.2117 628.746 85.6934 626.058 90.3349L607.557 120.304L607.556 120.305Z" fill="#0C4866"/>
        <path fill-rule="evenodd" clip-rule="evenodd" d="M620.6 92.6924L617.884 94.7168L618.655 97.4558L638.621 105.809C643.056 107.882 647.019 109.441 649.023 112.675L656.759 126.08L673.032 130.875L656.637 107.729C652.41 102.291 646.947 99.7487 640.973 98.2922L620.599 92.6933L620.6 92.6924Z" fill="#0C4866"/>
        <path fill-rule="evenodd" clip-rule="evenodd" d="M620.522 116.048L619.168 116.219C615.759 119.649 608.777 119.941 604.399 119.901C604.685 122.742 606.221 126.155 608.513 128.568C610.033 129.744 615.195 129.037 616.415 127.562C619.465 123.961 620.628 120.093 620.522 116.048Z" fill="#0C4866"/>
        <path fill-rule="evenodd" clip-rule="evenodd" d="M631.639 92.2913L631.152 93.8025L647.528 98.9315L647.953 97.0449L631.639 92.2913Z" fill="#0C4866"/>
        <path fill-rule="evenodd" clip-rule="evenodd" d="M622.16 89.645L621.858 90.583L637.926 95.6573L638.19 94.4852L622.16 89.645Z" fill="#0C4866"/>
        <path fill-rule="evenodd" clip-rule="evenodd" d="M656.325 107.334L645.329 100.11L647.539 96.7366C648.48 95.7174 649.362 95.7138 650.167 97.0952L656.326 107.334H656.325Z" fill="#0C4866"/>
        <path fill-rule="evenodd" clip-rule="evenodd" d="M680.067 136.625L654.449 132.096C656.551 126.137 659.711 118.012 664.923 113.106L682.269 117.133L680.067 136.625Z" fill="#0C4866"/>
        <path fill-rule="evenodd" clip-rule="evenodd" d="M658.914 120.761L709.806 131.846C711.621 132.242 712.81 134.014 712.437 135.834L710.705 144.28C710.474 145.409 709.357 146.157 708.23 145.913L656.082 134.571C654.954 134.326 654.217 133.226 654.448 132.096L656.438 122.393C656.669 121.264 657.786 120.516 658.913 120.76L658.914 120.761Z" fill="#0C4866"/>
        <path fill-rule="evenodd" clip-rule="evenodd" d="M667.569 116.93L665.91 116.554C662.572 120.04 659.561 125.186 658.764 131.046L664.354 132.254L667.568 116.93H667.569Z" fill="#B7CBD8"/>
        <path fill-rule="evenodd" clip-rule="evenodd" d="M690.153 124.822L708.734 128.892C709.406 129.039 709.847 129.696 709.709 130.37L709.067 133.5C708.982 133.919 708.567 134.196 708.149 134.105L688.823 129.902C688.405 129.811 688.13 129.403 688.218 128.985L688.92 125.645C689.009 125.226 689.734 124.731 690.152 124.822H690.153Z" fill="#0C4866"/>
        <path fill-rule="evenodd" clip-rule="evenodd" d="M759.928 167.895L568.786 169.303L619.988 137.885L759.928 167.895Z" fill="#0C4866"/>
        <path fill-rule="evenodd" clip-rule="evenodd" d="M180.663 150.69L317.738 157.07L438.342 138.161L736.652 162.903L787.36 157.596L805.642 137.611L939.999 188.122L708.43 190.279L743.773 195.449L700.463 209.842L596.939 201.49L591.71 197.399L585.508 197.892L584.423 200.48L578.356 199.991L585.352 195.622L576.04 187.53L572.992 195.444L576.869 199.871L570.86 199.386L571.762 198.348L568.372 195.25L566.122 199.004L560.307 198.535L562.604 197.224L562.49 194.558L557.898 194.639L558.733 198.408L552.782 197.928L553.396 193.101L546.116 194.356L547.931 197.536L542.923 197.133L543.964 196.538L543.85 193.873L539.257 193.954L539.909 196.889L536.245 196.593L534.49 191.268L531.106 193.406L527.214 195.865L524.399 195.638L526.033 194.99L526.275 192.542L522.074 192.02L522.341 195.471L520.243 195.302L520.051 194.126L515.761 192.73L511.648 194.608L405.594 186.052L547.936 209.418L436.645 228.001L409.482 225.456L404.186 220.797L399.511 216.684L395.653 224.161L389.957 223.628L391.532 219.643L384.498 218.394L381.874 222.523L382.582 222.938L377.763 222.486L380.898 218.581L370.023 214.873L369.806 221.741L360.848 220.902L362.733 216.133L355.699 214.884L354.871 218.95L356.832 220.526L348.602 219.754L346.494 214.506L340.528 218.435L340.901 219.033L333.714 218.36L339.353 213.674L336.608 200.772L320.324 210.923L328.285 217.852L321.385 217.205L320.623 214.072L315.576 212.852L309.693 216.11L202.42 206.061L265.617 193.517L0.00352478 179.678L180.667 150.693L180.663 150.69ZM358.351 207.427L365.887 197.271L359.455 190.657L348.395 193.926L358.351 207.428V207.427ZM360.561 207.573L364.506 214.747L370.135 212.746L371.193 205.355L360.561 207.573ZM344.239 211.59L352.518 214.141L355.323 208.478L350.689 202.081L344.239 211.59ZM379.626 212.03L375.322 207.045L372.365 209.472L375.499 214.345L379.626 212.03ZM347.774 199.166L340.74 197.917L339.913 201.983L345.034 206.099L347.774 199.166ZM372.745 190.504L366.865 186.447L364.423 189.802L367.374 195.673L372.745 190.504ZM371.216 202.09L378.113 200.228L372.917 194.284L370.745 194.651L371.216 202.09ZM387.145 205.574L381.397 198.916L377.446 202.157L379.14 210.068L387.145 205.574ZM393.233 207.025L383.683 211.078L385.897 216.683L395.392 217.635L393.233 207.025ZM561.562 189.555L557.804 182.344L562.558 178.795L569.248 181.99L561.561 189.555H561.562ZM560.448 188.947L558.254 193.573L552.244 190.927L553.174 186.179L560.448 188.947ZM570.102 193.537L564.034 194.397L562.705 190.128L567.982 189.01L570.102 193.537ZM547.578 190.8L550.239 188.556L551.581 190.068L550.426 193.054L547.578 190.8ZM569.113 185.38L573.706 185.299L573.82 187.964L570.151 190.06L569.113 185.38ZM532.33 185.898L536.474 183.917L537.684 186.295L535.217 189.724L532.33 185.898H532.33ZM553.933 184.864L549.743 182.984L550.774 180.523L554.986 180.188L553.934 184.864H553.933ZM543.467 185.464L547.791 181.819L549.971 184.276L548.094 189.128L543.467 185.464ZM539.455 185.77L545.108 189.31L543.134 192.644L537.009 192.287L539.455 185.77ZM528.885 186.92L532.276 190.019L530.526 192.033L526.422 191.032L528.886 186.92H528.885Z" fill="#0C4866"/>
        <path fill-rule="evenodd" clip-rule="evenodd" d="M527.014 67.9727L532.302 77.2875L539.629 74.5688L540.881 64.8831L527.014 67.9727Z" fill="#B7CBD8"/>
        <path fill-rule="evenodd" clip-rule="evenodd" d="M508.652 86.431L520.051 96.0858L528.339 89.0065L525.324 75.7224L508.652 86.431Z" fill="#B7CBD8"/>
        <path fill-rule="evenodd" clip-rule="evenodd" d="M508.435 72.0172L517.019 74.5354L519.837 68.6485L514.962 62.1089L508.435 72.0172Z" fill="#B7CBD8"/>
        <path fill-rule="evenodd" clip-rule="evenodd" d="M541.545 88.6566L536.649 83.1389L533.374 85.9017L534.884 92.5164L541.545 88.6566Z" fill="#B7CBD8"/>
        <path fill-rule="evenodd" clip-rule="evenodd" d="M448.666 128.084L468.671 80.1306L421.7 115.35L448.84 105.327L448.666 128.084Z" fill="#FEFEFE"/>
        <path fill-rule="evenodd" clip-rule="evenodd" d="M491.274 112.397L491.665 109.729L509.094 111.172L516.318 119.7L553.355 122.767L555.265 133.318L540.722 134.713L511.729 132.312L504.514 113.493L491.274 112.397Z" fill="#004665"/>
        <path fill-rule="evenodd" clip-rule="evenodd" d="M501.652 116.462L489.288 115.48L486.693 122.515L473.577 123.068L472.419 135.301L503.506 137.875L504.922 120.782L501.318 120.484L501.651 116.462L501.652 116.462ZM493.058 116.425L497.79 116.831L497.24 123.413L492.509 123.007L493.058 116.425ZM490.35 116.208L491.683 116.321L491.072 122.892L488.288 122.643L490.35 116.208Z" fill="#004665"/>
        <path fill-rule="evenodd" clip-rule="evenodd" d="M502 131.029L502.303 136.556L547.023 140.259L545.593 132.36L502.774 128.815L502 131.029Z" fill="#004665"/>
        <path d="M480.764 143.949C484.096 144.225 487.021 141.748 487.297 138.416C487.573 135.084 485.095 132.16 481.763 131.884C478.431 131.608 475.506 134.085 475.23 137.417C474.954 140.749 477.432 143.673 480.764 143.949Z" fill="#004665"/>
        <path d="M518.387 147.065C521.72 147.34 524.644 144.863 524.92 141.531C525.196 138.199 522.719 135.275 519.387 134.999C516.054 134.723 513.13 137.2 512.854 140.532C512.578 143.864 515.055 146.789 518.387 147.065Z" fill="#004665"/>
        <path d="M534.392 148.39C537.724 148.666 540.649 146.189 540.925 142.857C541.201 139.525 538.723 136.6 535.391 136.325C532.059 136.049 529.134 138.526 528.858 141.858C528.582 145.19 531.06 148.114 534.392 148.39Z" fill="#004665"/>
        <path d="M475.033 132.128L469.837 131.698L469.559 135.063L474.754 135.493L475.033 132.128Z" fill="#004665"/>
        <path fill-rule="evenodd" clip-rule="evenodd" d="M549.799 124.903L515.213 121.87L530.703 111.143L549.799 124.903Z" fill="#004665"/>
        <path fill-rule="evenodd" clip-rule="evenodd" d="M553.771 124.669L531.172 122.687L541.294 115.678L553.771 124.669Z" fill="#004665"/>
        <path d="M501.344 136.286L484.313 134.946L484.067 138.063L501.099 139.403L501.344 136.286Z" fill="#004665"/>
        <path d="M543.891 139.633L509.722 136.945L509.477 140.062L543.646 142.75L543.891 139.633Z" fill="#004665"/>
        <path d="M532.306 139.35L498.138 136.661L498.015 138.22L532.184 140.908L532.306 139.35Z" fill="#004665"/>
        <path d="M501.753 115.45L489.105 114.401C488.789 114.374 488.505 114.698 488.469 115.122C488.434 115.547 488.662 115.913 488.978 115.939L501.625 116.989C501.941 117.016 502.226 116.692 502.261 116.267C502.296 115.842 502.069 115.477 501.753 115.45Z" fill="#004665"/>
        <path fill-rule="evenodd" clip-rule="evenodd" d="M502.806 125.841L506.05 126.178C506.905 126.267 507.554 127.041 507.492 127.899L507.381 129.459L502.583 128.96L502.806 125.841V125.841Z" fill="#004665"/>
        <path fill-rule="evenodd" clip-rule="evenodd" d="M794.133 146.285L799.669 137.009L800.856 137.217L801.1 136.731L798.14 134.778C796.401 133.728 794.992 133.883 793.236 134.539L789.942 133.995L786.82 136.247L780.21 130.718L772.893 129.96L771.898 130.762L774.131 132.687L772.346 133.826L769.88 133.323L761.542 138.576L760.581 137.28L758.306 128.282L743.801 129.801L744.256 137.782L742.372 137.979L742.283 139.861L730.101 141.136C728.672 141.36 727.943 142.148 727.973 143.549L728.299 151.514L726.415 151.71L726.881 155.249C728.61 156.794 732.222 157.359 734.48 157.723L739.601 157.599L763.322 155.116L772.741 154.131L772.645 146.238L774.497 146.044L774.629 145.212L768.258 145.879L767.364 142.791L776.68 137.183L787.68 139.533C788.806 142.293 791.039 146.143 793.269 147.137L794.729 147.746L795.11 147.134L794.132 146.285H794.133ZM751.156 138.56L750.392 130.959L744.803 131.544L745.228 138.032L745.285 139.174L751.156 138.56ZM755.761 130.397L751.993 130.791L752.788 138.388L756.555 137.994L755.76 130.397H755.761ZM757.826 130.188L756.673 130.316L757.561 137.889L759.587 137.677L757.826 130.188Z" fill="#004665"/>
        <path d="M742.959 128.873L758.72 127.224C759.189 127.175 759.622 127.647 759.688 128.279C759.754 128.912 759.428 129.464 758.96 129.513L743.199 131.163C742.73 131.212 742.297 130.739 742.231 130.107C742.165 129.475 742.491 128.922 742.959 128.873Z" fill="#004665"/>
        <path fill-rule="evenodd" clip-rule="evenodd" d="M766.364 144.277L773.866 140.445L774.614 141.826L767.565 146.055L766.364 144.277Z" fill="#004665"/>
        <path fill-rule="evenodd" clip-rule="evenodd" d="M780.576 137.235L781.424 137.749L773.853 141.842L773.489 141.087L780.576 137.235Z" fill="#004665"/>
        <path fill-rule="evenodd" clip-rule="evenodd" d="M770.572 134.902L769.318 134.303L772.766 130.546L773.466 131.012L770.572 134.902Z" fill="#004665"/>
        <path d="M775.904 159.378C772.393 159.745 769.248 157.197 768.88 153.686C768.513 150.175 771.061 147.03 774.573 146.663C778.084 146.295 781.229 148.844 781.596 152.355C781.964 155.866 779.416 159.01 775.904 159.378Z" fill="#004665"/>
        <path d="M748.148 162.283C744.637 162.65 741.492 160.102 741.125 156.591C740.757 153.08 743.305 149.935 746.817 149.568C750.328 149.2 753.473 151.749 753.841 155.26C754.208 158.771 751.66 161.915 748.148 162.283Z" fill="#004665"/>
        <path d="M737.564 140.933L737.062 136.13C737.013 135.667 736.843 135.274 736.555 134.998C736.253 134.707 735.855 134.564 735.368 134.614L734.52 134.703L734.661 136.042L735.509 135.954C735.572 135.948 735.61 135.953 735.625 135.968C735.673 136.015 735.706 136.121 735.722 136.271L736.224 141.074L737.564 140.934V140.933Z" fill="#004665"/>
        <path d="M757.021 154.218L764.117 153.475L764.366 155.861L757.27 156.604L757.021 154.218Z" fill="#004665"/>
        <path fill-rule="evenodd" clip-rule="evenodd" d="M397.749 125.866L408.488 124.163L410.785 138.636L398.342 140.611L397.152 133.109L397.748 125.866H397.749ZM401.022 126.542L404.028 126.065L404.867 131.354L401.861 131.831L401.022 126.542ZM399.028 126.851L399.933 126.722L400.664 132.021L398.631 132.33L399.029 126.851H399.028Z" fill="#004665"/>
        <path d="M406.84 143.695C408.899 143.369 410.304 141.434 409.977 139.375C409.651 137.316 407.716 135.911 405.657 136.238C403.597 136.564 402.192 138.499 402.519 140.558C402.846 142.617 404.78 144.022 406.84 143.695Z" fill="#004665"/>
        <path d="M398.484 138.815L397.501 138.971L397.776 140.7L398.759 140.544L398.484 138.815Z" fill="#004665"/>
        <path d="M402.645 124.428L402.642 124.428C399.471 124.931 396.925 125.499 396.957 125.696L397.048 126.274C397.08 126.471 399.676 126.223 402.847 125.72L402.85 125.719C406.021 125.216 408.566 124.648 408.535 124.451L408.444 123.874C408.412 123.677 405.816 123.925 402.645 124.428Z" fill="#004665"/>
        <path d="M439.18 129.85L409.435 134.568L410.098 138.745L439.843 134.027L439.18 129.85Z" fill="#004665"/>
        <path d="M431.2 139.831C433.26 139.504 434.665 137.57 434.338 135.511C434.011 133.451 432.077 132.047 430.017 132.374C427.958 132.7 426.553 134.635 426.88 136.694C427.206 138.753 429.141 140.158 431.2 139.831Z" fill="#004665"/>
        <path fill-rule="evenodd" clip-rule="evenodd" d="M410.698 125.433L438.944 120.952L439.045 128.997L413.182 133.099L410.698 125.433Z" fill="#004665"/>
        <path d="M437.885 128.403L415.113 132.016L415.547 134.752L438.319 131.139L437.885 128.403Z" fill="#004665"/>
        <path d="M411.128 130.566L408.613 130.965L409.362 135.687L411.878 135.288L411.128 130.566Z" fill="#004665"/>
        <path fill-rule="evenodd" clip-rule="evenodd" d="M398.407 137.357L411.867 135.222L411.05 140.192L400.48 141.868L398.407 137.357Z" fill="#004665"/>
        <path fill-rule="evenodd" clip-rule="evenodd" d="M423.848 133.321L436.248 131.354L435.431 136.324L425.92 137.833L423.848 133.321Z" fill="#004665"/>
        <path d="M434.532 134.358L410.019 138.246L410.215 139.482L434.728 135.593L434.532 134.358Z" fill="#004665"/>
        <path fill-rule="evenodd" clip-rule="evenodd" d="M435.783 124.217L412.334 127.485L420.989 117.99L435.783 124.217Z" fill="#004665"/>
        <path fill-rule="evenodd" clip-rule="evenodd" d="M438.387 123.455L423.066 125.591L428.721 119.386L438.387 123.455Z" fill="#004665"/>
        <path fill-rule="evenodd" clip-rule="evenodd" d="M305.258 76.9228L308.791 75.9168L308.258 73.8509L304.963 73.1001L305.258 76.9228Z" fill="#B7CBD8"/>
        <path fill-rule="evenodd" clip-rule="evenodd" d="M305.68 79.2908L307.982 83.3458L311.172 82.1622L311.718 77.9456L305.68 79.2908Z" fill="#B7CBD8"/>
        <path fill-rule="evenodd" clip-rule="evenodd" d="M302.223 78.5789L299.195 82.1251L301.395 84.7201L305.545 83.7953L302.223 78.5789Z" fill="#B7CBD8"/>
        <path fill-rule="evenodd" clip-rule="evenodd" d="M307.323 94.1736L311.128 88.8988L307.774 85.5425L302.11 87.301L307.323 94.1736Z" fill="#B7CBD8"/>
        <path fill-rule="evenodd" clip-rule="evenodd" d="M308.94 96.273L311.574 100.912L315.223 99.5587L315.846 94.7344L308.94 96.273Z" fill="#B7CBD8"/>
        <path fill-rule="evenodd" clip-rule="evenodd" d="M299.795 105.466L305.473 110.273L309.599 106.747L308.099 100.133L299.795 105.466Z" fill="#B7CBD8"/>
        <path fill-rule="evenodd" clip-rule="evenodd" d="M299.688 98.2878L303.963 99.5411L305.366 96.6096L302.938 93.353L299.688 98.2878Z" fill="#B7CBD8"/>
        <path fill-rule="evenodd" clip-rule="evenodd" d="M316.177 106.574L313.739 103.827L312.107 105.202L312.859 108.496L316.177 106.574Z" fill="#B7CBD8"/>
        <path d="M714.281 74.4744H687.295V108.042H714.281V74.4744Z" fill="#B7CBD8"/>
        <path d="M725.838 77.8447H698.852V108.042H725.838V77.8447Z" fill="#B7CBD8"/>
        <path fill-rule="evenodd" clip-rule="evenodd" d="M795.063 111.331L790.055 109.904L790.81 106.975L795.481 105.912L795.063 111.331Z" fill="#B7CBD8"/>
        <path fill-rule="evenodd" clip-rule="evenodd" d="M794.465 114.687L791.201 120.436L786.679 118.758L785.906 112.78L794.465 114.687Z" fill="#B7CBD8"/>
        <path fill-rule="evenodd" clip-rule="evenodd" d="M799.366 113.678L803.658 118.705L800.54 122.385L794.655 121.074L799.366 113.678Z" fill="#B7CBD8"/>
        <path fill-rule="evenodd" clip-rule="evenodd" d="M791.157 131.662L795.068 128.407L793.181 125.21L788.546 125.439L791.157 131.662Z" fill="#B7CBD8"/>
        <path fill-rule="evenodd" clip-rule="evenodd" d="M324.772 151.445L317.739 157.071L517.793 166.417L324.772 151.445Z" fill="#B7CBD8"/>
        <path fill-rule="evenodd" clip-rule="evenodd" d="M731.288 158.613L736.653 162.904L630.393 171.067L731.288 158.613Z" fill="#B7CBD8"/>
        <path fill-rule="evenodd" clip-rule="evenodd" d="M597.946 147.89L597.961 151.4L625.62 153.694L597.946 147.89Z" fill="#B7CBD8"/>
        <path d="M733.453 132.132V89.5532H732.756V132.132H733.453Z" fill="#B7CBD8"/>
        <path d="M729.07 132.132V91.1846L728.375 90.7756V132.132H729.07Z" fill="#B7CBD8"/>
        <path d="M737.556 132.132V90.8445L736.86 91.2623V132.132H737.556Z" fill="#B7CBD8"/>
        <path d="M737.217 123.853C733.078 123.677 732.889 123.698 728.701 124.097L728.744 124.557L733.11 124.141L737.199 124.315L737.217 123.853Z" fill="#B7CBD8"/>
        <path d="M737.246 119.891L733.107 119.189L728.69 119.82L728.755 120.279L733.102 119.658L737.17 120.347L737.246 119.891Z" fill="#B7CBD8"/>
        <path d="M737.255 115.621L733.106 114.76L728.682 115.55L728.764 116.007L733.103 115.232L737.161 116.075L737.255 115.621Z" fill="#B7CBD8"/>
        <path d="M737.255 111.397L733.106 110.536L728.682 111.325L728.764 111.782L733.103 111.007L737.161 111.849L737.255 111.397Z" fill="#B7CBD8"/>
        <path d="M737.262 107.185L733.108 106.181L728.675 107.113L728.77 107.566L733.102 106.656L737.154 107.634L737.262 107.185Z" fill="#B7CBD8"/>
        <path d="M737.272 103.18L733.109 101.963L728.666 103.108L728.78 103.555L733.1 102.442L737.144 103.623L737.272 103.18Z" fill="#B7CBD8"/>
        <path d="M737.282 99.1913L733.108 97.7852L728.657 99.1189L728.788 99.5623L733.101 98.2709L737.135 99.6294L737.282 99.1913Z" fill="#B7CBD8"/>
        <path d="M737.29 95.2829L733.109 93.7063L728.649 95.2105L728.796 95.6486L733.1 94.1974L737.126 95.7157L737.29 95.2829Z" fill="#B7CBD8"/>
        <path d="M737.556 90.8444L733.112 89.1848L728.375 90.7755L728.833 91.3594L733.097 89.9214L737.086 91.4256L737.556 90.8444Z" fill="#B7CBD8"/>
        <path d="M737.338 123.968L733.235 119.309L732.974 119.538L737.078 124.198L737.338 123.968Z" fill="#B7CBD8"/>
        <path d="M737.091 119.991L733.102 123.675L728.837 119.919L728.608 120.18L733.107 124.143L737.326 120.247L737.091 119.991Z" fill="#B7CBD8"/>
        <path d="M728.85 124.33L733.233 119.54L732.976 119.306L728.595 124.096L728.85 124.33Z" fill="#B7CBD8"/>
        <path d="M737.344 120.144L733.241 114.889L732.968 115.103L737.072 120.357L737.344 120.144Z" fill="#B7CBD8"/>
        <path d="M737.091 115.562L733.102 119.235L728.837 115.49L728.608 115.751L733.107 119.701L737.326 115.818L737.091 115.562Z" fill="#B7CBD8"/>
        <path d="M728.854 120.163L733.235 115.109L732.974 114.883L728.592 119.936L728.854 120.163Z" fill="#B7CBD8"/>
        <path d="M737.337 115.302L733.234 110.657L732.975 110.886L737.079 115.531L737.337 115.302Z" fill="#B7CBD8"/>
        <path d="M737.091 111.337L733.102 115.01L728.837 111.265L728.608 111.526L733.107 115.477L737.326 111.592L737.091 111.337Z" fill="#B7CBD8"/>
        <path d="M728.853 115.893L733.235 110.886L732.974 110.657L728.592 115.665L728.853 115.893Z" fill="#B7CBD8"/>
        <path d="M737.204 111.486L733.241 106.435L732.968 106.65L736.931 111.702L737.204 111.486Z" fill="#B7CBD8"/>
        <path d="M737.091 107.108L733.102 110.781L728.837 107.036L728.608 107.297L733.107 111.248L737.326 107.364L737.091 107.108Z" fill="#B7CBD8"/>
        <path d="M728.85 111.435L733.233 106.66L732.976 106.425L728.595 111.2L728.85 111.435Z" fill="#B7CBD8"/>
        <path d="M737.344 107.3L733.24 102.197L732.969 102.414L737.073 107.518L737.344 107.3Z" fill="#B7CBD8"/>
        <path d="M737.098 103.018L733.098 106.311L728.825 103.192L728.621 103.472L733.112 106.749L737.318 103.286L737.098 103.018Z" fill="#B7CBD8"/>
        <path d="M728.855 107.556L733.236 102.418L732.973 102.193L728.591 107.331L728.855 107.556Z" fill="#B7CBD8"/>
        <path d="M737.24 103.146L733.241 98.0271L732.968 98.24L736.967 103.359L737.24 103.146Z" fill="#B7CBD8"/>
        <path d="M737.107 99.2698L733.103 102.147L728.821 99.1982L728.624 99.4835L733.106 102.571L737.309 99.5507L737.107 99.2698Z" fill="#B7CBD8"/>
        <path d="M728.855 103.443L733.237 98.2452L732.972 98.0217L728.59 103.221L728.855 103.443Z" fill="#B7CBD8"/>
        <path d="M737.346 99.3043L733.242 93.9412L732.967 94.1514L737.071 99.5154L737.346 99.3043Z" fill="#B7CBD8"/>
        <path d="M737.111 95.3553L733.104 98.0625L728.819 95.1875L728.626 95.4754L733.105 98.4812L737.306 95.6433L737.111 95.3553Z" fill="#B7CBD8"/>
        <path d="M728.857 99.4511L733.238 94.1568L732.971 93.936L728.589 99.2302L728.857 99.4511Z" fill="#B7CBD8"/>
        <path d="M737.35 95.3995L733.247 89.5461L732.962 89.7449L737.066 95.5982L737.35 95.3995Z" fill="#B7CBD8"/>
        <path d="M737.111 90.9568L733.102 93.6622L728.817 90.8853L728.628 91.1767L733.107 94.0782L737.306 91.2447L737.111 90.9568Z" fill="#B7CBD8"/>
        <path d="M728.861 95.5345L733.243 89.7501L732.966 89.5408L728.585 95.3252L728.861 95.5345Z" fill="#B7CBD8"/>
        <path fill-rule="evenodd" clip-rule="evenodd" d="M704.803 123.629L708.072 123.768L759.679 94.419L772.895 91.0114V90.1079L768.373 87.8821L756.48 91.9848L704.803 123.629Z" fill="#B7CBD8"/>
        <path d="M772.052 90.2827L773.944 89.4029C772.113 88.3077 770.281 87.2125 768.452 86.1155C764.174 87.617 759.895 89.1177 755.613 90.6112L703.828 122.842L704.073 123.235L755.817 91.0308L768.401 86.6242L772.959 89.3526L771.86 89.864L772.053 90.2844L772.052 90.2827Z" fill="#B7CBD8"/>
        <path d="M769.007 89.1186L773.992 87.3548C772.145 86.2498 770.298 85.1458 768.452 84.0391C764.174 85.5406 759.895 87.0377 755.615 88.5339L703.565 121.744L703.813 122.134L755.816 88.9535L768.401 84.5469L772.911 87.247L768.854 88.6823L769.008 89.1186H769.007Z" fill="#B7CBD8"/>
        <path d="M771.943 89.9923L771.748 86.1316L771.286 86.1537L771.481 90.0144L771.943 89.9923Z" fill="#B7CBD8"/>
        <path d="M769.805 88.9191L769.614 84.8022L769.152 84.8217L769.343 88.9385L769.805 88.9191Z" fill="#B7CBD8"/>
        <path d="M765.888 89.2909L765.698 85.1741L765.236 85.1935L765.426 89.3112L765.888 89.2909Z" fill="#B7CBD8"/>
        <path d="M757.089 92.6067L755.851 88.6753L755.409 88.8131L756.647 92.7444L757.089 92.6067Z" fill="#B7CBD8"/>
        <path d="M752.97 95.2793L751.732 91.3479L751.291 91.4857L752.527 95.417L752.97 95.2793Z" fill="#B7CBD8"/>
        <path d="M747.823 98.5483L746.585 94.6169L746.143 94.7547L747.381 98.6861L747.823 98.5483Z" fill="#B7CBD8"/>
        <path d="M742.274 102.254L741.037 98.3213L740.595 98.4591L741.833 102.39L742.274 102.254Z" fill="#B7CBD8"/>
        <path d="M737.197 105.453L735.959 101.521L735.518 101.658L736.755 105.591L737.197 105.453Z" fill="#B7CBD8"/>
        <path d="M732.397 108.64L731.159 104.709L730.718 104.847L731.955 108.778L732.397 108.64Z" fill="#B7CBD8"/>
        <path d="M728.12 111.155L726.883 107.224L726.441 107.361L727.678 111.293L728.12 111.155Z" fill="#B7CBD8"/>
        <path d="M724.19 113.763L722.952 109.832L722.511 109.97L723.748 113.901L724.19 113.763Z" fill="#B7CBD8"/>
        <path d="M720.261 116.128L719.023 112.196L718.582 112.334L719.818 116.265L720.261 116.128Z" fill="#B7CBD8"/>
        <path d="M716.261 118.77L715.024 114.839L714.582 114.977L715.819 118.908L716.261 118.77Z" fill="#B7CBD8"/>
        <path d="M712.088 121.344L710.851 117.412L710.409 117.55L711.647 121.481L712.088 121.344Z" fill="#B7CBD8"/>
        <path d="M756.707 91.907L733.112 89.1848L732.956 89.5531L756.424 92.1048L756.707 91.907Z" fill="#B7CBD8"/>
        <path d="M761.151 93.5667L737.556 90.8445L737.272 91.1951L760.868 93.7645L761.151 93.5667Z" fill="#B7CBD8"/>
        <path d="M728.604 91.068L703.712 121.987L703.564 121.744L728.375 90.7756L728.604 91.068Z" fill="#B7CBD8"/>
        <path d="M733.02 90.099L705.833 123.591L705.685 123.348L732.791 89.8066L733.02 90.099Z" fill="#B7CBD8"/>
        <path fill-rule="evenodd" clip-rule="evenodd" d="M331.195 115.182L296.266 141.004L311.806 142.055L331.195 115.182Z" fill="#FEFEFE"/>
        <path fill-rule="evenodd" clip-rule="evenodd" d="M239.473 130.018L253.176 130.748L252.191 149.215L236.316 148.369L236.826 138.798L239.473 130.018V130.018ZM243.334 131.715L247.169 131.919L246.81 138.666L242.974 138.461L243.335 131.714L243.334 131.715ZM240.792 131.57L241.943 131.651L241.446 138.381L238.856 138.227L240.792 131.57Z" fill="#004665"/>
        <path d="M245.987 154.417C248.615 154.557 250.859 152.541 250.999 149.913C251.139 147.286 249.122 145.042 246.495 144.902C243.867 144.762 241.623 146.778 241.483 149.406C241.343 152.033 243.359 154.277 245.987 154.417Z" fill="#004665"/>
        <path d="M236.964 146.191L235.71 146.124L235.592 148.33L236.846 148.396L236.964 146.191Z" fill="#004665"/>
        <path d="M245.893 129.533L245.89 129.533C241.844 129.317 238.553 129.346 238.54 129.598L238.5 130.335C238.487 130.586 241.756 130.965 245.802 131.181L245.805 131.181C249.852 131.397 253.143 131.368 253.156 131.116L253.195 130.379C253.209 130.128 249.94 129.749 245.893 129.533Z" fill="#004665"/>
        <path d="M301.11 146.478L251.653 143.841L251.369 149.17L300.825 151.807L301.11 146.478Z" fill="#004665"/>
        <path d="M278.599 156.156C281.226 156.296 283.47 154.28 283.61 151.652C283.75 149.025 281.734 146.781 279.106 146.641C276.479 146.501 274.235 148.517 274.095 151.145C273.955 153.772 275.971 156.016 278.599 156.156Z" fill="#004665"/>
        <path fill-rule="evenodd" clip-rule="evenodd" d="M256.043 129.125L251.589 128.04L251.657 126.68L261.322 127.341L262.874 129.489L305.087 131.74L302.791 145.476L256.985 143.034L256.043 129.125Z" fill="#004665"/>
        <path d="M299.199 144.315L260.351 142.244L260.165 145.734L299.012 147.806L299.199 144.315Z" fill="#004665"/>
        <path d="M254.743 139.347L251.534 139.176L251.212 145.2L254.422 145.371L254.743 139.347Z" fill="#004665"/>
        <path fill-rule="evenodd" clip-rule="evenodd" d="M237.253 144.371L266.273 145.918L263.953 151.836L238.621 150.485L237.253 144.371Z" fill="#004665"/>
        <path fill-rule="evenodd" clip-rule="evenodd" d="M271.243 146.183L298.27 147.625L295.95 153.541L272.611 152.298L271.243 146.183Z" fill="#004665"/>
        <path d="M282.622 150.198L251.347 148.531L251.263 150.107L282.538 151.775L282.622 150.198Z" fill="#004665"/>
        <path fill-rule="evenodd" clip-rule="evenodd" d="M295.005 138.148L257.181 135.415L273.918 123.439L295.005 138.148Z" fill="#004665"/>
        <path fill-rule="evenodd" clip-rule="evenodd" d="M299.639 134.877L260.845 137.956L282.511 122.453L299.639 134.877Z" fill="#004665"/>
        <path d="M289.466 156.735C292.094 156.875 294.338 154.859 294.478 152.232C294.618 149.604 292.602 147.361 289.974 147.22C287.346 147.08 285.102 149.097 284.962 151.724C284.822 154.352 286.839 156.595 289.466 156.735Z" fill="#004665"/>
        <path d="M257.383 155.025C260.011 155.165 262.254 153.148 262.394 150.521C262.535 147.893 260.518 145.65 257.89 145.51C255.263 145.37 253.019 147.386 252.879 150.014C252.739 152.641 254.755 154.884 257.383 155.025Z" fill="#004665"/>
        <path fill-rule="evenodd" clip-rule="evenodd" d="M805.034 132.503L798.428 130.622L799.424 126.759L805.584 125.356L805.034 132.503Z" fill="#B7CBD8"/>
        <path fill-rule="evenodd" clip-rule="evenodd" d="M307.465 115.744L311.74 116.999L313.143 114.067L310.716 110.811L307.465 115.744Z" fill="#B7CBD8"/>
        <path fill-rule="evenodd" clip-rule="evenodd" d="M304.951 115.83L298.964 117.612L299.547 122.131L304.886 124.114L304.951 115.83Z" fill="#B7CBD8"/>
    </g>
    <defs>
        <clipPath id="clip0_12_8">
            <rect width="940" height="228" fill="white"/>
        </clipPath>
    </defs>
</svg>
