<svg width="500" height="84" viewBox="0 0 500 84" fill="none" xmlns="http://www.w3.org/2000/svg">
    <g clip-path="url(#clip0_48_2)">
        <path fill-rule="evenodd" clip-rule="evenodd" d="M330.268 25.3412H338.807H346.797V33.332V49.3134H349.353V57.3041H346.797H338.807H328.271H320.281H317.725V49.3134H320.281V35.3296C320.281 29.8137 324.751 25.3412 330.268 25.3412ZM338.807 33.332H330.268C329.166 33.332 328.271 34.2271 328.271 35.3296V49.3134H338.807V33.332Z" fill="#0C4866"/>
        <path fill-rule="evenodd" clip-rule="evenodd" d="M360.929 37.3273H379.455V45.318H360.929V49.3134H379.455V57.3041H360.929H352.939V49.3134V45.318V37.3273V33.332V25.3412H360.929H379.455V33.332H360.929V37.3273Z" fill="#0C4866"/>
        <path fill-rule="evenodd" clip-rule="evenodd" d="M423.58 33.332H432.119C437.634 33.332 442.106 37.8044 442.106 43.3203V47.3157C442.106 52.8317 437.634 57.3041 432.119 57.3041H423.58H415.59V49.3134V41.3227V33.332V25.3412H423.58V33.332ZM434.116 47.3157V43.3203C434.116 42.2162 433.221 41.3227 432.119 41.3227H423.58V49.3134H432.119C433.221 49.3134 434.116 48.4183 434.116 47.3157Z" fill="#0C4866"/>
        <path fill-rule="evenodd" clip-rule="evenodd" d="M443.415 25.3412H452.662H460.652H469.931V33.332H460.652V57.3041H452.662V33.332H443.415V25.3412Z" fill="#0C4866"/>
        <path fill-rule="evenodd" clip-rule="evenodd" d="M480.848 43.6443H491.112L490.565 35.3296C490.493 34.2271 489.539 33.332 488.436 33.332H487.903H484.065H483.524C482.421 33.332 481.467 34.2271 481.396 35.3296L480.848 43.6443ZM498.555 35.3296L500 57.3041H492.01L491.637 51.635H480.322L479.949 57.3041H471.959L473.404 35.3296C473.766 29.8137 478.532 25.3412 484.049 25.3412H487.902C493.432 25.3412 498.191 29.8153 498.553 35.3296H498.555Z" fill="#0C4866"/>
        <path fill-rule="evenodd" clip-rule="evenodd" d="M224.741 25.3412H231.282C236.798 25.3412 241.27 29.8137 241.27 35.3296V47.3157C241.27 52.8317 236.798 57.3041 231.282 57.3041H224.741C219.226 57.3041 214.754 52.8317 214.754 47.3157V35.3296C214.754 29.8137 219.226 25.3412 224.741 25.3412ZM233.28 47.3157V35.3296C233.28 34.2271 232.385 33.332 231.282 33.332H224.741C223.637 33.332 222.744 34.2271 222.744 35.3296V47.3157C222.744 48.4183 223.639 49.3134 224.741 49.3134H231.282C232.386 49.3134 233.28 48.4183 233.28 47.3157Z" fill="#0C4866"/>
        <path d="M225.293 70.2188V81.6352H222.667V72.3712H217.514V81.6352H214.888V70.2188H225.291H225.293ZM237.237 70.2188C238.248 70.2188 239.126 70.3863 239.871 70.7246C240.616 71.0612 241.188 71.5399 241.592 72.1606C241.994 72.7797 242.195 73.5137 242.195 74.3625C242.195 75.2002 241.994 75.931 241.592 76.5565C241.19 77.1819 240.616 77.6606 239.871 77.9909C239.126 78.3228 238.248 78.4887 237.237 78.4887H234.938V81.6368H232.295V70.2204H237.237V70.2188ZM237.09 76.3347C237.884 76.3347 238.487 76.1639 238.901 75.8209C239.314 75.4778 239.52 74.9912 239.52 74.3609C239.52 73.7195 239.312 73.2265 238.901 72.885C238.487 72.542 237.884 72.3712 237.09 72.3712H234.938V76.3347H237.09ZM253.713 81.8315C252.527 81.8315 251.46 81.5762 250.507 81.0656C249.556 80.555 248.811 79.8498 248.274 78.953C247.736 78.0563 247.466 77.0463 247.466 75.9278C247.466 74.8077 247.736 73.7993 248.274 72.9026C248.811 72.0058 249.556 71.3022 250.507 70.79C251.458 70.2794 252.527 70.0241 253.713 70.0241C254.898 70.0241 255.962 70.2794 256.908 70.79C257.854 71.3006 258.599 72.0058 259.142 72.9026C259.686 73.7993 259.957 74.8093 259.957 75.9278C259.957 77.0479 259.686 78.0563 259.142 78.953C258.598 79.8498 257.853 80.5534 256.908 81.0656C255.962 81.5762 254.896 81.8315 253.713 81.8315ZM253.713 79.5817C254.386 79.5817 254.995 79.4269 255.539 79.1174C256.083 78.8078 256.509 78.3754 256.819 77.8202C257.128 77.2665 257.283 76.6346 257.283 75.9278C257.283 75.2209 257.128 74.5907 256.819 74.0354C256.509 73.4802 256.082 73.0494 255.539 72.7382C254.995 72.4287 254.387 72.2739 253.713 72.2739C253.038 72.2739 252.43 72.4287 251.886 72.7382C251.342 73.0478 250.916 73.4802 250.606 74.0354C250.297 74.5891 250.142 75.2209 250.142 75.9278C250.142 76.6346 250.297 77.2649 250.606 77.8202C250.916 78.3754 251.343 78.8062 251.886 79.1174C252.43 79.4269 253.038 79.5817 253.713 79.5817ZM266.16 70.2204H268.786V77.6574L274.233 70.2204H276.712V81.6368H274.104V74.2157L268.657 81.6368H266.162V70.2204H266.16ZM290.203 75.6837C290.867 75.9118 291.386 76.2677 291.761 76.7527C292.135 77.2362 292.324 77.7994 292.324 78.4408C292.324 79.1365 292.096 79.7397 291.639 80.2518C291.183 80.7624 290.566 81.1549 289.789 81.4262C289.012 81.6974 288.161 81.8347 287.236 81.8347C286.453 81.8347 285.672 81.7373 284.895 81.5411C284.118 81.3448 283.381 81.0464 282.686 80.6444L283.501 78.752C284 79.0567 284.552 79.2865 285.155 79.4445C285.758 79.6024 286.349 79.6806 286.925 79.6806C287.708 79.6806 288.357 79.5386 288.874 79.2562C289.391 78.9738 289.648 78.5765 289.648 78.0659C289.648 77.6415 289.471 77.3207 289.118 77.1037C288.766 76.8867 288.284 76.7782 287.675 76.7782H284.886V74.7885H287.478C288.011 74.7885 288.428 74.68 288.726 74.463C289.024 74.246 289.174 73.9461 289.174 73.5663C289.174 73.1212 288.959 72.7733 288.53 72.5228C288.101 72.2723 287.549 72.1478 286.874 72.1478C286.374 72.1478 285.857 72.2165 285.325 72.3521C284.792 72.4877 284.286 72.6919 283.807 72.9632L283.008 70.9081C284.214 70.289 285.519 69.9778 286.922 69.9778C287.813 69.9778 288.633 70.1087 289.383 70.3688C290.133 70.6304 290.731 71.0102 291.177 71.5112C291.622 72.0106 291.845 72.593 291.845 73.2568C291.845 73.8009 291.698 74.2843 291.405 74.7088C291.111 75.1332 290.709 75.4587 290.199 75.6869L290.203 75.6837ZM306.483 75.6837C307.179 75.8911 307.712 76.2278 308.082 76.6953C308.452 77.1628 308.635 77.7388 308.635 78.4249C308.635 79.4365 308.253 80.2247 307.485 80.7896C306.719 81.3544 305.623 81.6368 304.199 81.6368H298.573V70.2204H303.889C305.216 70.2204 306.249 70.4757 306.987 70.9863C307.726 71.4968 308.096 72.226 308.096 73.1722C308.096 73.7386 307.954 74.2349 307.672 74.6641C307.389 75.0933 306.992 75.4332 306.482 75.6837H306.483ZM301.199 74.9497H303.661C304.237 74.9497 304.672 74.8332 304.966 74.5987C305.26 74.3657 305.406 74.0195 305.406 73.5631C305.406 73.118 305.256 72.7749 304.958 72.5356C304.658 72.2962 304.227 72.1766 303.661 72.1766H301.199V74.9497ZM304.101 79.679C305.341 79.679 305.96 79.1892 305.96 78.2111C305.96 77.2649 305.339 76.7926 304.101 76.7926H301.199V79.679H304.101ZM320.333 81.8315C319.148 81.8315 318.08 81.5762 317.128 81.0656C316.177 80.555 315.432 79.8498 314.894 78.953C314.357 78.0563 314.087 77.0463 314.087 75.9278C314.087 74.8077 314.357 73.7993 314.894 72.9026C315.432 72.0058 316.177 71.3022 317.128 70.79C318.079 70.2794 319.148 70.0241 320.333 70.0241C321.519 70.0241 322.584 70.2794 323.529 70.79C324.475 71.3006 325.22 72.0058 325.762 72.9026C326.306 73.7993 326.578 74.8093 326.578 75.9278C326.578 77.0479 326.306 78.0563 325.762 78.953C325.218 79.8498 324.475 80.5534 323.529 81.0656C322.583 81.5762 321.517 81.8315 320.333 81.8315ZM320.333 79.5817C321.008 79.5817 321.616 79.4269 322.16 79.1174C322.704 78.8078 323.13 78.3754 323.439 77.8202C323.749 77.2665 323.904 76.6346 323.904 75.9278C323.904 75.2209 323.749 74.5907 323.439 74.0354C323.13 73.4802 322.702 73.0494 322.16 72.7382C321.616 72.4287 321.008 72.2739 320.333 72.2739C319.658 72.2739 319.05 72.4287 318.506 72.7382C317.962 73.0478 317.536 73.4802 317.227 74.0354C316.917 74.5891 316.763 75.2209 316.763 75.9278C316.763 76.6346 316.917 77.2649 317.227 77.8202C317.536 78.3754 317.964 78.8062 318.506 79.1174C319.05 79.4269 319.658 79.5817 320.333 79.5817ZM344.23 79.4828V84.0015H341.784V81.6368H333.728V84.0015H331.283L331.299 79.4828H331.755C332.439 79.4604 332.924 78.961 333.207 77.9829C333.489 77.0048 333.663 75.6071 333.728 73.7913L333.859 70.2188H342.633V79.4828H344.231H344.23ZM336.059 74.0354C336.005 75.3949 335.89 76.5341 335.716 77.4516C335.542 78.3706 335.276 79.0472 334.917 79.4828H340.021V72.3728H336.107L336.058 74.0354H336.059ZM355.568 81.8315C354.405 81.8315 353.354 81.5794 352.413 81.0736C351.471 80.5678 350.733 79.8673 350.195 78.969C349.657 78.0723 349.388 77.0575 349.388 75.9278C349.388 74.7965 349.657 73.7833 350.195 72.8866C350.733 71.9899 351.473 71.2878 352.413 70.782C353.352 70.2762 354.41 70.0241 355.584 70.0241C356.574 70.0241 357.467 70.198 358.266 70.5459C359.066 70.8937 359.737 71.3931 360.28 72.0457L358.584 73.611C357.812 72.7191 356.854 72.2739 355.714 72.2739C355.007 72.2739 354.377 72.4287 353.821 72.7382C353.266 73.0478 352.834 73.4802 352.524 74.0354C352.215 74.5891 352.06 75.2209 352.06 75.9278C352.06 76.6346 352.215 77.2649 352.524 77.8202C352.834 78.3754 353.266 78.8062 353.821 79.1174C354.377 79.4269 355.007 79.5817 355.714 79.5817C356.856 79.5817 357.812 79.1301 358.584 78.2286L360.28 79.7939C359.736 80.4577 359.062 80.9635 358.257 81.3113C357.453 81.6592 356.554 81.8331 355.565 81.8331L355.568 81.8315ZM374.785 72.3728H371.133V81.6368H368.523V72.3728H364.887V70.2204H374.785V72.3728ZM388.522 75.6837C389.218 75.8911 389.751 76.2278 390.121 76.6953C390.491 77.1628 390.676 77.7388 390.676 78.4249C390.676 79.4365 390.293 80.2247 389.526 80.7896C388.76 81.3544 387.664 81.6368 386.239 81.6368H380.613V70.2204H385.93C387.255 70.2204 388.289 70.4757 389.028 70.9863C389.767 71.4968 390.137 72.226 390.137 73.1722C390.137 73.7386 389.995 74.2349 389.712 74.6641C389.43 75.0933 389.033 75.4332 388.522 75.6837ZM383.238 74.9497H385.7C386.276 74.9497 386.711 74.8332 387.005 74.5987C387.298 74.3657 387.445 74.0195 387.445 73.5631C387.445 73.118 387.295 72.7749 386.997 72.5356C386.697 72.2962 386.266 72.1766 385.7 72.1766H383.238V74.9497ZM386.14 79.679C387.38 79.679 387.999 79.1892 387.999 78.2111C387.999 77.2649 387.378 76.7926 386.14 76.7926H383.238V79.679H386.14ZM402.372 81.8315C401.187 81.8315 400.119 81.5762 399.168 81.0656C398.218 80.555 397.472 79.8498 396.935 78.953C396.397 78.0563 396.128 77.0463 396.128 75.9278C396.128 74.8077 396.397 73.7993 396.935 72.9026C397.472 72.0058 398.218 71.3022 399.168 70.79C400.119 70.2794 401.188 70.0241 402.372 70.0241C403.557 70.0241 404.623 70.2794 405.568 70.79C406.514 71.3006 407.259 72.0058 407.801 72.9026C408.345 73.7993 408.617 74.8093 408.617 75.9278C408.617 77.0479 408.345 78.0563 407.801 78.953C407.257 79.8498 406.512 80.5534 405.568 81.0656C404.622 81.5762 403.556 81.8315 402.372 81.8315ZM402.372 79.5817C403.047 79.5817 403.655 79.4269 404.199 79.1174C404.743 78.8078 405.169 78.3754 405.478 77.8202C405.788 77.2665 405.943 76.6346 405.943 75.9278C405.943 75.2209 405.788 74.5907 405.478 74.0354C405.169 73.4802 404.741 73.0494 404.199 72.7382C403.655 72.4287 403.047 72.2739 402.372 72.2739C401.699 72.2739 401.089 72.4287 400.545 72.7382C400.001 73.0478 399.575 73.4802 399.266 74.0354C398.956 74.5891 398.801 75.2209 398.801 75.9278C398.801 76.6346 398.956 77.2649 399.266 77.8202C399.575 78.3754 400.003 78.8062 400.545 79.1174C401.089 79.4269 401.697 79.5817 402.372 79.5817ZM434.504 70.2204V81.6368H419.435V70.2204H422.061V79.4844H425.665V70.2204H428.292V79.4844H431.88V70.2204H434.506H434.504ZM436.053 79.4844V84.0031H433.608V81.6384H431.83V79.486H436.053V79.4844ZM450.867 79.5179V81.6384H442.028V70.222H450.655V72.3425H444.654V74.8221H449.954V76.8772H444.654V79.5195H450.867V79.5179ZM457.167 70.222H466.381V72.3266H459.793V74.6753H462.957C464.337 74.6753 465.39 74.9641 466.113 75.5401C466.836 76.1161 467.198 76.949 467.198 78.0356C467.198 79.178 466.796 80.0636 465.992 80.6938C465.188 81.3241 464.052 81.64 462.584 81.64H457.169V70.2236L457.167 70.222ZM462.434 79.6806C463.109 79.6806 463.624 79.5466 463.983 79.2817C464.342 79.0153 464.521 78.6275 464.521 78.1153C464.521 77.1149 463.825 76.6155 462.434 76.6155H459.792V79.6822H462.434V79.6806ZM483.835 70.222V81.6384H481.193V76.9569H476.008V81.6384H473.366V70.222H476.008V74.7231H481.193V70.222H483.835ZM499.968 70.222V81.6384H497.359V78.6052H494.946L492.923 81.6384H490.134L492.514 78.1967C491.742 77.8808 491.15 77.4053 490.737 76.7703C490.324 76.1336 490.118 75.3709 490.118 74.479C490.118 73.5982 490.319 72.8403 490.721 72.2037C491.123 71.567 491.694 71.0788 492.433 70.7357C493.171 70.3927 494.043 70.222 495.043 70.222H499.968ZM495.108 72.3744C494.358 72.3744 493.784 72.5483 493.387 72.8962C492.99 73.244 492.792 73.761 492.792 74.4455C492.792 75.1093 492.982 75.6198 493.363 75.9789C493.743 76.3379 494.303 76.5166 495.043 76.5166H497.358V72.3744H495.108Z" fill="#0C4866"/>
        <path fill-rule="evenodd" clip-rule="evenodd" d="M255.98 25.3412H262.521C268.036 25.3412 272.508 29.8137 272.508 35.3296V47.3157C272.508 52.8317 268.036 57.3041 262.521 57.3041H255.98C250.464 57.3041 245.992 52.8317 245.992 47.3157V35.3296C245.992 29.8137 250.464 25.3412 255.98 25.3412ZM264.518 47.3157V35.3296C264.518 34.2271 263.623 33.332 262.521 33.332H255.98C254.876 33.332 253.982 34.2271 253.982 35.3296V47.3157C253.982 48.4183 254.877 49.3134 255.98 49.3134H262.521C263.625 49.3134 264.518 48.4183 264.518 47.3157Z" fill="#0C4866"/>
        <path fill-rule="evenodd" clip-rule="evenodd" d="M287.392 25.3412H293.934C299.449 25.3412 303.921 29.8137 303.921 35.3296V47.3157C303.921 52.8317 299.451 57.3041 293.934 57.3041H287.392C281.877 57.3041 277.405 52.8317 277.405 47.3157V35.3296C277.405 29.8137 281.875 25.3412 287.392 25.3412ZM295.931 47.3157V35.3296C295.931 34.2271 295.036 33.332 293.934 33.332H287.392C286.29 33.332 285.395 34.2271 285.395 35.3296V47.3157C285.395 48.4183 286.29 49.3134 287.392 49.3134H293.934C295.036 49.3134 295.931 48.4183 295.931 47.3157Z" fill="#0C4866"/>
        <path fill-rule="evenodd" clip-rule="evenodd" d="M395.545 25.3412H395.995H402.431H410.421V33.332V57.3041H402.431V33.332H396.009H395.545H395.47C394.368 33.332 393.414 34.2271 393.342 35.3296L391.896 57.3041H383.906L385.352 35.3296C385.705 29.9637 390.223 25.587 395.547 25.3524V25.3412H395.545Z" fill="#0C4866"/>
        <path fill-rule="evenodd" clip-rule="evenodd" d="M52.3526 47.1609L71.2841 59.6624L65.9521 45.5254L38.3415 28.8372L32.9952 19.6689L30.3564 17.968L31.7189 14.3221L31.6838 14.2997L34.6497 10.2805L39.3498 9.61191L46.3937 14.0524L46.6681 13.7684L47.3031 14.2678L45.221 17.1255L50.3089 20.2688L50.6519 19.7279L52.1388 20.6853L51.8277 21.2071L65.909 29.9062L66.2824 29.319L67.7677 30.2764L67.4279 30.8444L80.7658 39.084L81.0769 38.5942L82.5622 39.5515L82.2814 40.0207L93.4271 46.9056L108.636 36.863L131.726 52.1088L171.881 66.5489C173.949 67.2925 175.032 69.5933 174.289 71.6596C173.866 72.8339 172.942 73.6908 171.843 74.0753L193.424 81.7294C128.95 81.7294 64.4748 81.7294 0 81.7294L52.3526 47.1593V47.1609ZM46.7287 22.876L44.6674 24.7684L45.939 25.5407L54.3565 27.5958L46.7287 22.876ZM58.8189 30.3578L64.1397 36.5981L67.8794 38.8702L69.2323 36.8023L58.8189 30.3578ZM70.1976 37.3991L68.8558 39.4622L72.5971 41.7343L80.2057 43.5916L70.1992 37.3991H70.1976ZM85.1723 46.6663L88.2739 50.3042L89.6172 49.4171L85.1708 46.6663H85.1723ZM56.831 29.1276L56.8948 29.1659L62.3145 35.4892L55.4175 31.2992L56.831 29.126V29.1276ZM82.0389 44.7276L82.283 44.8776L80.9987 46.8386L74.5276 42.9087L82.0389 44.7276ZM84.7591 52.4264L81.2284 50.2931L79.8931 52.3466L82.65 54.0188L84.8692 52.554L84.7591 52.4264ZM80.2536 49.7027L76.3671 47.354L72.0052 46.2977L72.8604 48.0784L78.9135 51.7514L80.2536 49.7027ZM74.4351 46.186L70.9379 44.0718L71.6223 45.4999L74.4351 46.186ZM68.7489 42.7491L68.09 42.3518L66.8057 44.3255L69.8514 45.0691L68.7489 42.7507V42.7491ZM67.1152 41.7614L60.9169 38.015L65.8117 43.7559L67.1152 41.7614ZM59.0822 36.9061L54.6341 34.2175L53.3258 36.2279L64.1094 42.7698L59.0822 36.9045V36.9061ZM53.6593 33.6287L49.4872 31.1077L41.8259 29.2536L52.3447 35.636L53.6577 33.6303L53.6593 33.6287ZM47.5552 29.9381L40.9804 25.9635L39.6865 27.9532L39.8636 28.0617L47.5552 29.9381ZM40.004 25.3747L39.6274 25.1482L39.3674 24.703L37.4225 24.419L38.8856 27.082L40.0008 25.3763L40.004 25.3747ZM55.7988 28.6361L47.8742 26.7182L54.4427 30.7088L55.7988 28.6361ZM81.9767 47.4354L87.5224 50.8036L87.7091 50.6792L83.2482 45.476L81.9751 47.4338L81.9767 47.4354ZM81.3864 54.8564L73.9532 50.3633L77.3786 57.5035L81.3864 54.8564ZM71.7308 49.0198L67.9927 46.7604L73.0997 60.3277L76.1517 58.3125L71.7308 49.0198ZM68.5415 45.4632L70.6459 46.7397L70.2327 45.8733L68.5415 45.4632Z" fill="#0C4866"/>
        <path fill-rule="evenodd" clip-rule="evenodd" d="M40.0406 77.7883L50.4541 52.8237L26.0056 71.1602L40.1316 65.941L40.0406 77.7883Z" fill="#FEFEFE"/>
        <path fill-rule="evenodd" clip-rule="evenodd" d="M106.499 45.1345L78.5289 64.4459L83.3855 67.6531L92.012 61.4845L88.6536 71.1315L97.052 76.6777L106.499 45.1345Z" fill="#FEFEFE"/>
        <path fill-rule="evenodd" clip-rule="evenodd" d="M132.796 77.4787H119.441L137.003 65.2198L132.796 77.4787Z" fill="#FEFEFE"/>
        <path fill-rule="evenodd" clip-rule="evenodd" d="M165.455 43.6139L182.727 49.7681C183.352 49.9899 183.694 50.6728 183.48 51.2999L183.038 52.5971L183.392 52.7231C185.08 53.3231 186.001 55.1628 185.423 56.8573L182.738 64.7236C182.379 65.7767 181.221 66.3559 180.173 65.9841L131.69 48.7884C130.642 48.4166 130.071 47.2742 130.43 46.2227L132.78 39.3377L127.608 26.9879C126.084 23.6499 122.485 21.6778 118.498 19.1535L102.587 9.98049L87.3613 28.8228C91.2334 29.1148 95.8171 28.9313 98.6282 26.7406L99.9445 26.7438C99.5536 30.6242 97.9693 34.1824 94.6141 37.2539C93.2676 38.516 88.2451 38.5639 86.9353 37.2539C85.3973 35.1573 84.4145 32.4943 84.1353 30.0961C82.8781 29.6557 82.1043 28.183 82.9547 26.6544L92.9006 10.6155L93.9217 8.97048L96.3643 5.03097C100.516 -1.20938 111.502 -1.28596 108.367 2.82587L108.075 3.18647L113.381 5.55592L113.466 5.37562L128.01 11.7005L128.128 11.5617C129.151 10.7017 129.996 10.8054 130.596 12.2255L135.239 22.7659L135.237 22.7644C135.322 22.9016 135.406 23.0404 135.489 23.1808L140.022 31.6885C140.888 30.8237 141.799 30.0291 142.756 29.3334L158.853 35.2961L156.898 43.3139L163.668 45.7169L164.178 44.2458C164.314 43.8564 165.067 43.4703 165.456 43.6091L165.455 43.6139ZM126.762 13.1637L112.816 6.76378L112.928 6.52764L107.43 3.98905L106.02 5.73463L121.662 12.2526C123.125 12.8127 124.546 13.4429 125.905 14.1705L126.764 13.1653L126.762 13.1637Z" fill="#0C4866"/>
        <path fill-rule="evenodd" clip-rule="evenodd" d="M28.2089 30.3243L33.56 28.8005L32.7527 25.6699L27.7638 24.5339L28.2089 30.3243Z" fill="#0C4866"/>
        <path fill-rule="evenodd" clip-rule="evenodd" d="M28.8487 33.9111L32.3347 40.0542L37.1673 38.2623L37.9921 31.8736L28.8487 33.9111Z" fill="#0C4866"/>
        <path fill-rule="evenodd" clip-rule="evenodd" d="M23.6125 32.8325L19.0272 38.2049L22.3584 42.1364L28.6445 40.7355L23.6125 32.8325Z" fill="#0C4866"/>
        <path fill-rule="evenodd" clip-rule="evenodd" d="M31.3376 56.4568L37.1003 48.4661L32.0204 43.3826L23.4417 46.0456L31.3376 56.4568Z" fill="#0C4866"/>
        <path fill-rule="evenodd" clip-rule="evenodd" d="M144.822 33.316L143.281 32.7543C139.666 35.6822 136.161 40.2361 134.685 45.744L139.883 47.5806L144.822 33.3176V33.316Z" fill="#FEFEFE"/>
    </g>
    <defs>
        <clipPath id="clip0_48_2">
            <rect width="500" height="84" fill="white"/>
        </clipPath>
    </defs>
</svg>
