<svg width="221" height="131" viewBox="0 0 221 131" fill="none" xmlns="http://www.w3.org/2000/svg">
    <path fill-rule="evenodd" clip-rule="evenodd" d="M73.1829 40.656L89.4942 51.4334L84.893 39.2466L61.0998 24.8629L56.4986 16.9664L54.2188 15.4948L55.4002 12.3445L55.3794 12.3238L57.9287 8.86255L61.991 8.28223L68.0637 12.1165L68.2916 11.8678L68.8305 12.303L67.0274 14.7694L71.4212 17.4845L71.7114 17.0078L72.9964 17.8368L72.727 18.2928L84.8723 25.7956L85.2039 25.2981L86.4889 26.1272L86.1988 26.6246L97.7016 33.7336L97.9711 33.319L99.2561 34.1481L99.0074 34.5626L108.624 40.4902L121.744 31.8268L141.64 44.967L176.253 57.4232C178.035 58.0657 178.968 60.0554 178.325 61.8378C177.952 62.8534 177.165 63.5788 176.211 63.9104L194.823 70.5012C139.236 70.5012 83.6702 70.5012 28.0835 70.5012L73.2037 40.6974L73.1829 40.656ZM68.3331 19.7229L66.5507 21.3602L67.6491 22.0235L74.9032 23.7852L68.3331 19.7229ZM78.7582 26.1686L83.3386 31.5574L86.5718 33.5056L87.7325 31.7232L78.7582 26.1686ZM88.5615 32.2413L87.4009 34.0237L90.6341 35.9927L97.1835 37.5886L88.5615 32.2413ZM101.474 40.2208L104.147 43.3504L105.308 42.5835L101.474 40.2208ZM77.0379 25.1116L77.1001 25.1531L81.7634 30.604L75.8151 26.9977L77.0379 25.1323V25.1116ZM98.7586 38.5627L98.9659 38.687L97.8674 40.3866L92.2922 37.0083L98.7586 38.5834V38.5627ZM101.101 45.195L98.054 43.3504L96.8933 45.1121L99.2768 46.5629L101.184 45.2986L101.08 45.195H101.101ZM97.2249 42.8529L93.8673 40.8218L90.116 39.9099L90.8621 41.4436L96.085 44.6146L97.2457 42.8529H97.2249ZM92.2093 39.827L89.204 38.0031L89.7843 39.2259L92.2093 39.827ZM87.318 36.8632L86.7584 36.5108L85.6599 38.2104L88.2921 38.8528L87.3387 36.8632H87.318ZM85.9086 36.0134L80.5613 32.7802L84.7894 37.7337L85.9086 36.0134ZM78.9862 31.8268L75.1519 29.5055L74.0327 31.2465L83.3179 36.8839L78.9862 31.8268ZM74.3021 29.0081L70.7166 26.8319L64.105 25.236L73.1829 30.7283L74.3229 29.0081H74.3021ZM69.0378 25.837L63.3796 22.4173L62.2604 24.1375L62.4055 24.2204L69.0378 25.837ZM62.5299 21.8991L62.1982 21.7126L61.9703 21.3395L60.2915 21.0908L61.5557 23.3914L62.5091 21.9198L62.5299 21.8991ZM76.1467 24.7178L69.3072 23.0598L74.9654 26.5002L76.126 24.7178H76.1467ZM98.7172 40.9254L103.505 43.8271L103.671 43.7234L99.8157 39.2466L98.7172 40.9254ZM98.199 47.3297L91.7948 43.454L94.7378 49.6096L98.199 47.3297ZM89.8673 42.2933L86.6547 40.3451L91.0486 52.0345L93.6808 50.2935L89.8673 42.2933ZM87.1107 39.2259L88.9139 40.3244L88.5615 39.5783L87.1107 39.2259Z" fill="#0C4866"/>
    <path fill-rule="evenodd" clip-rule="evenodd" d="M62.5717 67.0608L71.546 45.5474L50.4678 61.3405L62.6546 56.843L62.5717 67.0608Z" fill="#FEFEFE"/>
    <path fill-rule="evenodd" clip-rule="evenodd" d="M119.858 38.9148L95.7539 55.5577L99.9405 58.3349L107.36 53.0084L104.479 61.3195L111.713 66.1071L119.858 38.9148Z" fill="#FEFEFE"/>
    <path fill-rule="evenodd" clip-rule="evenodd" d="M142.531 66.7913H131.008L146.158 56.2211L142.531 66.7913Z" fill="#FEFEFE"/>
    <path fill-rule="evenodd" clip-rule="evenodd" d="M170.677 37.6092L185.559 42.915C186.097 43.1015 186.388 43.7026 186.201 44.2414L185.828 45.3606L186.139 45.4643C187.59 45.9824 188.377 47.5576 187.88 49.0291L185.559 55.8065C185.248 56.7184 184.253 57.2158 183.341 56.8842L141.558 42.0652C140.646 41.7543 140.169 40.7595 140.48 39.8476L142.511 33.92L138.055 23.2669C136.749 20.386 133.64 18.6865 130.2 16.5103L116.479 8.61371L103.36 24.8628C106.697 25.1115 110.655 24.9664 113.08 23.0596H114.22C113.889 26.3965 112.521 29.4639 109.619 32.1168C108.458 33.2153 104.127 33.236 103.007 32.1168C101.681 30.3137 100.831 28.0131 100.603 25.9405C99.5255 25.5675 98.8623 24.2824 99.5877 22.9767L108.168 9.15258L109.039 7.74322L111.153 4.34418C114.738 -1.04454 124.21 -1.10671 121.495 2.43741L121.246 2.74829L125.827 4.80015L125.91 4.63435L138.449 10.0852L138.552 9.96089C139.444 9.21476 140.169 9.31839 140.687 10.5412L144.687 19.6191C144.77 19.7435 144.832 19.8471 144.894 19.9715L148.812 27.3084C149.558 26.5623 150.345 25.8783 151.174 25.2773L165.04 30.4173L163.361 37.319L169.206 39.3916L169.641 38.1273C169.765 37.7957 170.408 37.4641 170.74 37.5884L170.677 37.6092ZM137.329 11.3702L125.308 5.85717L125.412 5.64991L120.666 3.45297L119.443 4.96596L132.936 10.5827C134.2 11.0594 135.423 11.5982 136.604 12.2407L137.35 11.3702H137.329Z" fill="#0C4866"/>
    <path fill-rule="evenodd" clip-rule="evenodd" d="M52.3738 26.1477L56.9749 24.842L56.291 22.1476L51.98 21.1528L52.3738 26.1477Z" fill="#0C4866"/>
    <path fill-rule="evenodd" clip-rule="evenodd" d="M52.9131 29.2359L55.9183 34.5418L60.0842 32.9873L60.8096 27.495L52.9131 29.2359Z" fill="#0C4866"/>
    <path fill-rule="evenodd" clip-rule="evenodd" d="M48.4152 28.3033L44.4565 32.9459L47.3167 36.3242L52.7469 35.1221L48.4152 28.3033Z" fill="#0C4866"/>
    <path fill-rule="evenodd" clip-rule="evenodd" d="M55.0688 48.6768L60.0223 41.7958L55.6491 37.4019L48.25 39.7025L55.0688 48.6768Z" fill="#0C4866"/>
    <path fill-rule="evenodd" clip-rule="evenodd" d="M89.1629 85.7345H95.7537H101.93V91.9108V104.243H103.899V110.419H101.93H95.7537H87.6291H81.4528H79.4839V104.243H81.4528V93.4445C81.4528 89.1957 84.9141 85.7345 89.1629 85.7345ZM95.7537 91.9108H89.1629C88.3131 91.9108 87.6291 92.5948 87.6291 93.4445V104.243H95.7537V91.9108Z" fill="#0C4866"/>
    <path fill-rule="evenodd" clip-rule="evenodd" d="M112.832 94.9782H127.132V101.155H112.832V104.222H127.132V110.398H112.832H106.655V104.222V101.155V94.9782V91.8901V85.7345H112.832H127.132V91.8901H112.832V94.9782Z" fill="#0C4866"/>
    <path fill-rule="evenodd" clip-rule="evenodd" d="M161.185 91.8901H167.776C172.025 91.8901 175.486 95.3513 175.486 99.6001V102.688C175.486 106.937 172.025 110.398 167.776 110.398H161.185H155.009V104.222V98.0457V91.8694V85.6931H161.185V91.8694V91.8901ZM169.31 102.688V99.6001C169.31 98.7503 168.626 98.0664 167.776 98.0664H161.185V104.243H167.776C168.626 104.243 169.31 103.559 169.31 102.709V102.688Z" fill="#0C4866"/>
    <path fill-rule="evenodd" clip-rule="evenodd" d="M176.501 85.7345H183.631H189.807H196.958V91.8901H189.807V110.398H183.631V91.8901H176.501V85.7345Z" fill="#0C4866"/>
    <path fill-rule="evenodd" clip-rule="evenodd" d="M205.393 99.8489H213.31L212.896 93.4239C212.834 92.5741 212.108 91.8902 211.259 91.8902H210.844H207.88H207.466C206.616 91.8902 205.87 92.5741 205.828 93.4239L205.414 99.8489H205.393ZM219.052 93.4239L220.171 110.378H213.994L213.704 106.004H204.979L204.689 110.378H198.512L199.631 93.4239C199.922 89.1751 203.59 85.7139 207.839 85.7139H210.803C215.072 85.7139 218.741 89.1751 219.031 93.4239H219.052Z" fill="#0C4866"/>
    <path fill-rule="evenodd" clip-rule="evenodd" d="M7.71002 85.7345H12.7671C17.0159 85.7345 20.4771 89.1957 20.4771 93.4445V102.688C20.4771 106.937 17.0159 110.398 12.7671 110.398H7.71002C3.46122 110.398 0 106.937 0 102.688V93.4445C0 89.1957 3.46122 85.7345 7.71002 85.7345ZM14.3008 102.688V93.4445C14.3008 92.5948 13.6169 91.9108 12.7671 91.9108H7.71002C6.86026 91.9108 6.1763 92.5948 6.1763 93.4445V102.688C6.1763 103.538 6.86026 104.222 7.71002 104.222H12.7671C13.6169 104.222 14.3008 103.538 14.3008 102.688Z" fill="#0C4866"/>
    <path d="M8.04163 120.368V129.176H6.0105V122.026H2.03113V129.176H0V120.368H8.04163ZM17.2646 120.368C18.0522 120.368 18.7154 120.492 19.2958 120.761C19.8761 121.031 20.3113 121.383 20.6222 121.86C20.9331 122.337 21.0782 122.896 21.0782 123.559C21.0782 124.202 20.9331 124.761 20.6222 125.259C20.3113 125.736 19.8761 126.109 19.2958 126.357C18.7154 126.606 18.0522 126.751 17.2646 126.751H15.4822V129.176H13.4511V120.368H17.2646ZM17.161 125.093C17.7828 125.093 18.2387 124.969 18.5496 124.699C18.8605 124.43 19.0263 124.057 19.0263 123.58C19.0263 123.083 18.8605 122.71 18.5496 122.44C18.2387 122.171 17.7621 122.046 17.161 122.046H15.5029V125.114H17.161V125.093ZM29.9903 129.342C29.0784 129.342 28.2493 129.135 27.5239 128.741C26.7985 128.347 26.2182 127.808 25.8037 127.103C25.3892 126.42 25.1819 125.632 25.1819 124.761C25.1819 123.891 25.3892 123.124 25.8037 122.419C26.2182 121.735 26.7985 121.176 27.5239 120.782C28.2493 120.388 29.0784 120.181 29.9903 120.181C30.9022 120.181 31.7313 120.388 32.4567 120.782C33.1821 121.176 33.7624 121.715 34.1769 122.419C34.5914 123.103 34.7987 123.891 34.7987 124.761C34.7987 125.632 34.5914 126.399 34.1769 127.103C33.7624 127.787 33.1821 128.347 32.4567 128.741C31.7313 129.135 30.9022 129.342 29.9903 129.342ZM29.9903 127.601C30.5084 127.601 30.9851 127.477 31.3997 127.249C31.8142 127 32.1458 126.668 32.3945 126.254C32.6432 125.818 32.7468 125.342 32.7468 124.803C32.7468 124.264 32.6225 123.767 32.3945 123.352C32.1458 122.917 31.8349 122.585 31.3997 122.357C30.9851 122.109 30.5084 122.005 29.9903 122.005C29.4722 122.005 28.9955 122.129 28.5809 122.357C28.1664 122.606 27.8348 122.938 27.5861 123.352C27.3374 123.787 27.2338 124.264 27.2338 124.803C27.2338 125.342 27.3581 125.839 27.5861 126.254C27.8348 126.689 28.1457 127.021 28.5809 127.249C28.9955 127.497 29.4722 127.601 29.9903 127.601ZM39.6071 120.368H41.6382V126.109L45.8456 120.368H47.7523V129.176H45.7419V123.456L41.5346 129.176H39.6071V120.368ZM58.1774 124.596C58.6956 124.782 59.0894 125.052 59.3795 125.425C59.6697 125.798 59.8148 126.233 59.8148 126.73C59.8148 127.269 59.6283 127.725 59.2759 128.119C58.9236 128.513 58.4469 128.824 57.8458 129.031C57.2448 129.238 56.5816 129.342 55.8769 129.342C55.2758 129.342 54.6748 129.259 54.0737 129.114C53.4727 128.969 52.9131 128.741 52.3742 128.43L52.996 126.979C53.3898 127.207 53.8043 127.394 54.281 127.518C54.737 127.642 55.1929 127.705 55.6489 127.705C56.2499 127.705 56.7474 127.601 57.1619 127.373C57.5557 127.145 57.7629 126.855 57.7629 126.461C57.7629 126.129 57.6179 125.881 57.3484 125.715C57.079 125.549 56.7059 125.466 56.2292 125.466H54.0737V123.932H56.0841C56.4987 123.932 56.8095 123.85 57.0375 123.684C57.2655 123.518 57.3899 123.29 57.3899 123C57.3899 122.647 57.2241 122.378 56.8924 122.191C56.5608 122.005 56.1256 121.901 55.6074 121.901C55.2137 121.901 54.8199 121.963 54.4053 122.067C53.9908 122.171 53.597 122.337 53.224 122.544L52.6022 120.948C53.5349 120.471 54.5504 120.222 55.6282 120.222C56.3121 120.222 56.9546 120.326 57.535 120.533C58.1153 120.741 58.5712 121.031 58.9236 121.425C59.2759 121.818 59.4417 122.254 59.4417 122.772C59.4417 123.186 59.3381 123.559 59.1101 123.891C58.8821 124.223 58.5712 124.471 58.1774 124.637V124.596ZM70.758 124.596C71.2969 124.761 71.7114 125.01 72.0016 125.383C72.2918 125.736 72.4368 126.192 72.4368 126.71C72.4368 127.497 72.1467 128.098 71.5456 128.534C70.9446 128.969 70.1155 129.197 69.0171 129.197H64.6646V120.388H68.7684C69.7839 120.388 70.5922 120.596 71.1518 120.989C71.7322 121.383 72.0016 121.943 72.0016 122.668C72.0016 123.103 71.898 123.497 71.67 123.829C71.442 124.16 71.1518 124.43 70.758 124.616V124.596ZM66.675 124.036H68.5818C69.0171 124.036 69.3694 123.953 69.5974 123.767C69.8254 123.58 69.929 123.311 69.929 122.958C69.929 122.606 69.8046 122.357 69.5767 122.171C69.3487 121.984 69.0171 121.901 68.5818 121.901H66.675V124.036ZM68.9134 127.684C69.8668 127.684 70.3435 127.311 70.3435 126.544C70.3435 125.818 69.8668 125.445 68.9134 125.445H66.675V127.684H68.9134ZM81.4526 129.342C80.5406 129.342 79.7116 129.135 78.9862 128.741C78.2608 128.347 77.6805 127.808 77.266 127.103C76.8514 126.42 76.6442 125.632 76.6442 124.761C76.6442 123.891 76.8514 123.124 77.266 122.419C77.6805 121.735 78.2608 121.176 78.9862 120.782C79.7116 120.388 80.5406 120.181 81.4526 120.181C82.3645 120.181 83.1936 120.388 83.919 120.782C84.6444 121.176 85.2247 121.715 85.6392 122.419C86.0537 123.103 86.261 123.891 86.261 124.761C86.261 125.632 86.0537 126.399 85.6392 127.103C85.2247 127.787 84.6444 128.347 83.919 128.741C83.1936 129.135 82.3645 129.342 81.4526 129.342ZM81.4526 127.601C81.9707 127.601 82.4474 127.477 82.8619 127.249C83.2765 127 83.6081 126.668 83.8568 126.254C84.1055 125.818 84.2091 125.342 84.2091 124.803C84.2091 124.264 84.0848 123.767 83.8568 123.352C83.6081 122.917 83.2972 122.585 82.8619 122.357C82.4474 122.109 81.9707 122.005 81.4526 122.005C80.9344 122.005 80.4577 122.129 80.0432 122.357C79.6287 122.606 79.2971 122.938 79.0484 123.352C78.7997 123.787 78.696 124.264 78.696 124.803C78.696 125.342 78.8204 125.839 79.0484 126.254C79.2971 126.689 79.608 127.021 80.0432 127.249C80.4577 127.497 80.9344 127.601 81.4526 127.601ZM99.8986 127.518V131H98.0125V129.176H91.7948V131H89.9087L89.9294 127.518H90.2818C90.8207 127.497 91.1937 127.124 91.401 126.357C91.629 125.611 91.7533 124.513 91.7948 123.124L91.8984 120.368H98.6758V127.518H99.9193H99.8986ZM93.5979 123.311C93.5565 124.368 93.4736 125.238 93.3285 125.943C93.2041 126.648 92.9969 127.166 92.7067 127.518H96.6446V122.026H93.6186L93.5772 123.311H93.5979ZM108.666 129.321C107.774 129.321 106.945 129.135 106.22 128.741C105.495 128.347 104.914 127.808 104.5 127.124C104.085 126.44 103.878 125.653 103.878 124.782C103.878 123.912 104.085 123.124 104.5 122.44C104.914 121.756 105.495 121.197 106.22 120.824C106.945 120.43 107.754 120.243 108.666 120.243C109.432 120.243 110.116 120.368 110.738 120.637C111.36 120.906 111.878 121.3 112.293 121.798L110.987 123C110.386 122.316 109.66 121.963 108.769 121.963C108.23 121.963 107.733 122.088 107.318 122.316C106.883 122.565 106.552 122.896 106.324 123.311C106.075 123.746 105.971 124.223 105.971 124.761C105.971 125.3 106.096 125.798 106.324 126.212C106.572 126.648 106.904 126.979 107.318 127.207C107.754 127.456 108.23 127.559 108.769 127.559C109.66 127.559 110.386 127.207 110.987 126.523L112.293 127.725C111.878 128.243 111.36 128.637 110.738 128.907C110.116 129.176 109.432 129.3 108.666 129.3V129.321ZM123.505 122.026H120.687V129.176H118.676V122.026H115.878V120.368H123.526V122.026H123.505ZM134.117 124.575C134.656 124.741 135.07 124.989 135.361 125.363C135.651 125.715 135.796 126.171 135.796 126.689C135.796 127.477 135.506 128.078 134.905 128.513C134.303 128.948 133.474 129.176 132.376 129.176H128.024V120.368H132.127C133.143 120.368 133.951 120.575 134.511 120.969C135.091 121.362 135.361 121.922 135.361 122.647C135.361 123.083 135.257 123.476 135.029 123.808C134.801 124.14 134.511 124.409 134.117 124.596V124.575ZM130.034 124.015H131.941C132.376 124.015 132.728 123.932 132.956 123.746C133.184 123.559 133.288 123.29 133.288 122.938C133.288 122.585 133.164 122.337 132.936 122.15C132.708 121.963 132.376 121.881 131.941 121.881H130.034V124.015ZM132.272 127.663C133.226 127.663 133.702 127.29 133.702 126.523C133.702 125.798 133.226 125.425 132.272 125.425H130.034V127.663H132.272ZM144.811 129.321C143.9 129.321 143.071 129.114 142.345 128.72C141.62 128.326 141.039 127.787 140.625 127.083C140.21 126.399 140.003 125.611 140.003 124.741C140.003 123.87 140.21 123.103 140.625 122.399C141.039 121.715 141.62 121.155 142.345 120.761C143.071 120.368 143.9 120.16 144.811 120.16C145.723 120.16 146.552 120.368 147.278 120.761C148.003 121.155 148.584 121.694 148.998 122.399C149.413 123.083 149.62 123.87 149.62 124.741C149.62 125.611 149.413 126.378 148.998 127.083C148.584 127.767 148.003 128.326 147.278 128.72C146.552 129.114 145.723 129.321 144.811 129.321ZM144.811 127.58C145.33 127.58 145.806 127.456 146.221 127.228C146.635 126.979 146.967 126.648 147.216 126.233C147.464 125.798 147.568 125.321 147.568 124.782C147.568 124.243 147.444 123.746 147.216 123.331C146.967 122.896 146.656 122.565 146.221 122.337C145.806 122.088 145.33 121.984 144.811 121.984C144.293 121.984 143.817 122.109 143.402 122.337C142.988 122.585 142.656 122.917 142.407 123.331C142.159 123.767 142.055 124.243 142.055 124.782C142.055 125.321 142.179 125.818 142.407 126.233C142.656 126.668 142.967 127 143.402 127.228C143.817 127.477 144.293 127.58 144.811 127.58ZM169.62 120.347V129.155H157.993V120.347H160.024V127.497H162.802V120.347H164.833V127.497H167.61V120.347H169.641H169.62ZM170.822 127.497V130.979H168.936V129.155H167.568V127.497H170.822ZM182.263 127.518V129.155H175.444V120.347H182.097V121.984H177.455V123.891H181.538V125.487H177.455V127.518H182.242H182.263ZM187.134 120.347H194.243V121.963H189.165V123.767H191.61C192.667 123.767 193.496 123.995 194.056 124.43C194.616 124.865 194.885 125.508 194.885 126.357C194.885 127.249 194.574 127.933 193.952 128.409C193.331 128.886 192.46 129.135 191.32 129.135H187.134V120.326V120.347ZM191.196 127.642C191.714 127.642 192.108 127.539 192.398 127.331C192.667 127.124 192.813 126.834 192.813 126.44C192.813 125.673 192.274 125.28 191.196 125.28H189.165V127.642H191.196ZM207.714 120.347V129.155H205.683V125.549H201.683V129.155H199.652V120.347H201.683V123.829H205.683V120.347H207.714ZM220.171 120.347V129.155H218.16V126.813H216.295L214.74 129.155H212.585L214.43 126.502C213.829 126.254 213.373 125.901 213.062 125.404C212.751 124.907 212.585 124.326 212.585 123.642C212.585 122.958 212.73 122.378 213.041 121.881C213.352 121.383 213.787 121.01 214.367 120.741C214.948 120.471 215.611 120.347 216.378 120.347H220.171ZM216.419 122.005C215.839 122.005 215.404 122.129 215.093 122.399C214.782 122.668 214.637 123.062 214.637 123.601C214.637 124.119 214.782 124.513 215.072 124.782C215.362 125.052 215.798 125.197 216.378 125.197H218.16V122.005H216.419Z" fill="#0C4866"/>
    <path fill-rule="evenodd" clip-rule="evenodd" d="M31.814 85.7345H36.8711C41.1199 85.7345 44.5811 89.1957 44.5811 93.4445V102.688C44.5811 106.937 41.1199 110.398 36.8711 110.398H31.814C27.5652 110.398 24.104 106.937 24.104 102.688V93.4445C24.104 89.1957 27.5652 85.7345 31.814 85.7345ZM38.4048 102.688V93.4445C38.4048 92.5948 37.7209 91.9108 36.8711 91.9108H31.814C30.9643 91.9108 30.2803 92.5948 30.2803 93.4445V102.688C30.2803 103.538 30.9643 104.222 31.814 104.222H36.8711C37.7209 104.222 38.4048 103.538 38.4048 102.688Z" fill="#0C4866"/>
    <path fill-rule="evenodd" clip-rule="evenodd" d="M56.0635 85.7345H61.1206C65.3694 85.7345 68.8307 89.1957 68.8307 93.4445V102.688C68.8307 106.937 65.3694 110.398 61.1206 110.398H56.0635C51.8147 110.398 48.3535 106.937 48.3535 102.688V93.4445C48.3535 89.1957 51.8147 85.7345 56.0635 85.7345ZM62.6544 102.688V93.4445C62.6544 92.5948 61.9704 91.9108 61.1206 91.9108H56.0635C55.2138 91.9108 54.5298 92.5948 54.5298 93.4445V102.688C54.5298 103.538 55.2138 104.222 56.0635 104.222H61.1206C61.9704 104.222 62.6544 103.538 62.6544 102.688Z" fill="#0C4866"/>
    <path fill-rule="evenodd" clip-rule="evenodd" d="M139.547 85.7345H139.899H144.874H151.05V91.9108V110.419H144.874V91.9108H139.92H139.568H139.506C138.656 91.9108 137.91 92.5948 137.868 93.4445L136.749 110.398H130.573L131.692 93.4445C131.961 89.2993 135.443 85.921 139.568 85.7345H139.547Z" fill="#0C4866"/>
    <path fill-rule="evenodd" clip-rule="evenodd" d="M152.894 28.7178L151.568 28.2411C148.459 30.7696 145.433 34.6868 144.148 39.433L148.625 41.0082L152.874 28.7178H152.894Z" fill="#FEFEFE"/>
</svg>
